<svg width="223" height="24" viewBox="0 0 223 24" fill="none" xmlns="http://www.w3.org/2000/svg">
<path d="M0 19.2343L4.19358 17.0227C4.66639 17.9883 5.28309 18.6995 6.04369 19.1564C6.81457 19.6132 7.6574 19.8417 8.57218 19.8417C9.69252 19.8417 10.5251 19.6288 11.0698 19.2031C11.6146 18.767 11.887 18.17 11.887 17.4121C11.887 16.6334 11.5889 16.0208 10.9927 15.5743C10.4069 15.1278 9.47668 14.7852 8.20216 14.5464C5.7559 14.0688 3.95718 13.3056 2.806 12.257C1.6651 11.1979 1.09465 9.73913 1.09465 7.8806C1.09465 5.76249 1.83469 4.07008 3.31478 2.80337C4.79487 1.53666 6.74777 0.90331 9.17347 0.90331C10.8283 0.90331 12.2775 1.24075 13.5212 1.91564C14.7649 2.59053 15.7414 3.55613 16.4506 4.81246L12.3495 6.94614C11.9384 6.2401 11.4707 5.73134 10.9465 5.41986C10.4223 5.09799 9.74392 4.93705 8.91137 4.93705C7.9452 4.93705 7.20001 5.1499 6.67582 5.5756C6.1619 6.0013 5.90494 6.53602 5.90494 7.17975C5.90494 7.83387 6.1619 8.3634 6.67582 8.76833C7.18974 9.16288 8.15076 9.48475 9.5589 9.73394C11.9024 10.1596 13.6703 10.9487 14.8626 12.1012C16.0651 13.2433 16.6664 14.7956 16.6664 16.7579C16.6664 18.9799 15.9623 20.745 14.5542 22.0532C13.1461 23.3511 11.1366 24 8.52593 24C6.6347 24 4.92849 23.5847 3.40729 22.7541C1.89636 21.913 0.760601 20.7398 0 19.2343Z" fill="url(#paint0_linear_211_8602)"/>
<path d="M33.7183 17.0383H23.4193C23.4913 18.0662 23.8407 18.8864 24.4677 19.499C25.105 20.1012 25.9375 20.4023 26.9654 20.4023C27.5923 20.4023 28.1628 20.2466 28.6767 19.9351C29.2009 19.6236 29.6686 19.1564 30.0797 18.5334L33.6566 20.5892C32.7521 21.7729 31.7397 22.6398 30.6193 23.1901C29.499 23.73 28.2553 24 26.8883 24C24.2776 24 22.2424 23.2888 20.7829 21.8663C19.3234 20.4335 18.5936 18.44 18.5936 15.8858C18.5936 13.2382 19.3542 11.1408 20.8754 9.59377C22.3966 8.04672 24.2673 7.2732 26.4874 7.2732C28.7898 7.2732 30.5679 7.96366 31.8219 9.34458C33.0861 10.7255 33.7183 12.8021 33.7183 15.5743V17.0383ZM29.2009 13.9234C29.2009 12.8332 28.9697 12.0182 28.5071 11.4783C28.0549 10.928 27.4433 10.6528 26.6724 10.6528C25.7474 10.6528 24.9971 10.9643 24.4215 11.5873C23.8561 12.2103 23.5118 12.989 23.3885 13.9234H29.2009Z" fill="url(#paint1_linear_211_8602)"/>
<path d="M50.9089 19.9195C50.1997 21.2589 49.2335 22.2764 48.0104 22.9721C46.7975 23.6574 45.4048 24 43.8322 24C41.3037 24 39.3251 23.268 37.8964 21.804C36.478 20.3297 35.7688 18.4036 35.7688 16.026C35.7688 13.316 36.5551 11.1823 38.1277 9.62492C39.7003 8.06749 41.7457 7.28877 44.2639 7.28877C45.8159 7.28877 47.183 7.65737 48.365 8.39455C49.547 9.12135 50.3436 10.1856 50.7547 11.5873L46.8078 13.0668C46.4994 12.392 46.1243 11.8988 45.6823 11.5873C45.2506 11.2654 44.7161 11.1045 44.0789 11.1045C43.123 11.1045 42.3213 11.4783 41.6737 12.2258C41.0365 12.963 40.7179 14.1207 40.7179 15.6989C40.7179 17.194 41.0211 18.2894 41.6275 18.9851C42.2339 19.6807 43.0048 20.0286 43.9401 20.0286C44.6493 20.0286 45.2455 19.878 45.7286 19.5769C46.2219 19.2654 46.6742 18.7722 47.0853 18.0973L50.9089 19.9195Z" fill="url(#paint2_linear_211_8602)"/>
<path d="M68.7933 23.5951H63.9213V21.5704H63.8597C63.3663 22.2972 62.6725 22.8838 61.7783 23.3303C60.8943 23.7664 60.0053 23.9844 59.111 23.9844C57.2815 23.9844 55.8939 23.4237 54.9483 22.3024C54.013 21.1811 53.5453 19.5977 53.5453 17.5522V7.64698H58.4018V16.8047C58.4018 17.8222 58.6177 18.6372 59.0494 19.2498C59.4811 19.852 60.1235 20.1531 60.9766 20.1531C61.8297 20.1531 62.5337 19.8313 63.0888 19.1875C63.6438 18.5438 63.9213 17.7287 63.9213 16.7424V7.64698H68.7933V23.5951Z" fill="url(#paint3_linear_211_8602)"/>
<path d="M82.7154 11.9611C82.3762 11.8469 82.0421 11.7638 81.7132 11.7119C81.3843 11.6496 81.0605 11.6184 80.7419 11.6184C79.7757 11.6184 78.9894 12.013 78.383 12.8021C77.7766 13.5808 77.4734 14.645 77.4734 15.9948V23.6106H72.6014V7.66256H77.4734V10.4971H77.5351C77.9154 9.45879 78.455 8.68008 79.1539 8.16093C79.8528 7.64179 80.6905 7.38222 81.667 7.38222C82.0473 7.38222 82.407 7.41337 82.7462 7.47567C83.0957 7.52758 83.44 7.62103 83.7792 7.756L82.7154 11.9611Z" fill="url(#paint4_linear_211_8602)"/>
<path d="M99.6439 17.0383H89.3449C89.4169 18.0662 89.7663 18.8864 90.3933 19.499C91.0306 20.1012 91.8631 20.4023 92.891 20.4023C93.518 20.4023 94.0884 20.2466 94.6023 19.9351C95.1265 19.6236 95.5942 19.1564 96.0053 18.5334L99.5822 20.5892C98.6777 21.7729 97.6653 22.6398 96.5449 23.1901C95.4246 23.73 94.1809 24 92.8139 24C90.2032 24 88.1681 23.2888 86.7085 21.8663C85.249 20.4335 84.5192 18.44 84.5192 15.8858C84.5192 13.2382 85.2798 11.1408 86.801 9.59377C88.3222 8.04672 90.1929 7.2732 92.413 7.2732C94.7154 7.2732 96.4935 7.96366 97.7475 9.34458C99.0118 10.7255 99.6439 12.8021 99.6439 15.5743V17.0383ZM95.1265 13.9234C95.1265 12.8332 94.8953 12.0182 94.4327 11.4783C93.9805 10.928 93.3689 10.6528 92.598 10.6528C91.673 10.6528 90.9227 10.9643 90.3471 11.5873C89.7818 12.2103 89.4374 12.989 89.3141 13.9234H95.1265Z" fill="url(#paint5_linear_211_8602)"/>
<path d="M115.246 4.45425H106.983V11.1201H114.599V14.2816H106.983V23.6106H103.313V1.27709H115.246V4.45425Z" fill="url(#paint6_linear_211_8602)"/>
<path d="M125.623 23.9844C123.125 23.9844 121.141 23.2421 119.671 21.7573C118.202 20.2726 117.467 18.2738 117.467 15.7612C117.477 13.2174 118.258 11.172 119.81 9.62492C121.362 8.06749 123.377 7.28877 125.854 7.28877C128.341 7.28877 130.304 8.05192 131.743 9.5782C133.182 11.1045 133.902 13.0772 133.902 15.4964C133.902 17.9676 133.141 20.0026 131.62 21.6016C130.109 23.1901 128.11 23.9844 125.623 23.9844ZM125.761 21.0409C127.18 21.0409 128.279 20.5529 129.061 19.5769C129.842 18.5905 130.232 17.2615 130.232 15.5899C130.232 13.9805 129.837 12.6879 129.045 11.7119C128.264 10.7255 127.169 10.2323 125.761 10.2323C124.353 10.2323 123.228 10.7411 122.385 11.7586C121.542 12.7657 121.121 14.074 121.121 15.6833C121.121 17.355 121.537 18.6684 122.369 19.6236C123.202 20.5685 124.333 21.0409 125.761 21.0409Z" fill="url(#paint7_linear_211_8602)"/>
<path d="M137.232 23.6106V0H140.824V23.6106H137.232Z" fill="url(#paint8_linear_211_8602)"/>
<path d="M156.149 21.3991C155.574 22.2505 154.849 22.8942 153.975 23.3303C153.102 23.7664 152.11 23.9844 151 23.9844C148.883 23.9844 147.212 23.2784 145.989 21.8663C144.776 20.4439 144.17 18.4919 144.17 16.0104C144.17 13.3316 144.848 11.2083 146.205 9.64049C147.572 8.07268 149.391 7.28877 151.663 7.28877C152.65 7.28877 153.539 7.48605 154.33 7.8806C155.132 8.27515 155.738 8.77352 156.149 9.37573H156.211V0H159.803V23.6106H156.211V21.3991H156.149ZM147.824 15.8702C147.824 17.4899 148.189 18.7567 148.918 19.6703C149.648 20.584 150.656 21.0409 151.94 21.0409C153.256 21.0409 154.304 20.584 155.086 19.6703C155.867 18.7567 156.257 17.5834 156.257 16.1506V14.3284C156.257 13.1655 155.877 12.1947 155.116 11.416C154.366 10.6269 153.39 10.2323 152.187 10.2323C150.841 10.2323 149.777 10.7203 148.996 11.6963C148.214 12.6723 147.824 14.0636 147.824 15.8702Z" fill="url(#paint9_linear_211_8602)"/>
<path d="M177.657 16.5243H166.757C166.787 18.061 167.199 19.2187 167.99 19.9974C168.792 20.7657 169.773 21.1499 170.935 21.1499C171.757 21.1499 172.487 20.9578 173.124 20.5737C173.761 20.1791 174.301 19.5977 174.743 18.8293L177.503 20.34C176.783 21.5029 175.863 22.401 174.743 23.0344C173.633 23.6677 172.322 23.9844 170.811 23.9844C168.489 23.9844 166.628 23.2784 165.23 21.8663C163.832 20.4543 163.134 18.4244 163.134 15.7768C163.134 13.2537 163.848 11.2083 165.277 9.64049C166.716 8.07268 168.514 7.28877 170.673 7.28877C172.893 7.28877 174.609 7.95847 175.822 9.29786C177.045 10.6372 177.657 12.5788 177.657 15.1226V16.5243ZM174.188 13.939C174.188 12.6931 173.88 11.7275 173.263 11.0422C172.646 10.3569 171.803 10.0143 170.734 10.0143C169.614 10.0143 168.704 10.3933 168.005 11.1512C167.307 11.8988 166.885 12.828 166.741 13.939H174.188Z" fill="url(#paint10_linear_211_8602)"/>
<path d="M189.929 10.9176C189.641 10.8034 189.343 10.7151 189.035 10.6528C188.737 10.5801 188.418 10.5438 188.079 10.5438C187.02 10.5438 186.162 11.0214 185.504 11.9766C184.847 12.9319 184.518 14.1778 184.518 15.7145V23.6106H180.925V7.66256H184.518V10.5438H184.579C184.949 9.52628 185.494 8.74757 186.214 8.20766C186.933 7.65737 187.766 7.38222 188.711 7.38222C189.112 7.38222 189.482 7.41337 189.821 7.47567C190.161 7.53796 190.525 7.65737 190.916 7.83387L189.929 10.9176Z" fill="url(#paint11_linear_211_8602)"/>
<path d="M205.47 4.45425H197.206V11.1201H204.823V14.2816H197.206V23.6106H193.537V1.27709H205.47V4.45425Z" fill="url(#paint12_linear_211_8602)"/>
<path d="M207.552 19.39L210.743 17.7703C211.206 18.7774 211.833 19.5302 212.624 20.0286C213.426 20.5269 214.361 20.7761 215.43 20.7761C216.704 20.7761 217.686 20.4958 218.375 19.9351C219.074 19.3744 219.423 18.5905 219.423 17.5834C219.423 16.6074 219.079 15.8287 218.39 15.2472C217.701 14.6658 216.643 14.2038 215.214 13.8611C212.891 13.3108 211.211 12.5321 210.173 11.525C209.134 10.5075 208.615 9.14212 208.615 7.42894C208.615 5.38352 209.319 3.78975 210.728 2.64763C212.146 1.49513 213.893 0.918884 215.97 0.918884C217.532 0.918884 218.909 1.26671 220.102 1.96236C221.294 2.64763 222.25 3.67034 222.969 5.0305L219.87 6.55678C219.397 5.67424 218.837 5.04088 218.19 4.65672C217.542 4.27255 216.756 4.08047 215.831 4.08047C214.68 4.08047 213.785 4.34523 213.148 4.87476C212.511 5.3939 212.192 6.08955 212.192 6.96171C212.192 7.83387 212.485 8.51914 213.071 9.01752C213.657 9.5159 214.71 9.9416 216.232 10.2946C218.575 10.8241 220.286 11.6392 221.366 12.7398C222.455 13.8404 223 15.3199 223 17.1785C223 19.1616 222.347 20.7917 221.042 22.0688C219.737 23.3459 217.876 23.9844 215.461 23.9844C213.6 23.9844 211.976 23.5847 210.589 22.7852C209.212 21.9857 208.199 20.854 207.552 19.39Z" fill="url(#paint13_linear_211_8602)"/>
<defs>
<linearGradient id="paint0_linear_211_8602" x1="111.5" y1="0" x2="111" y2="37" gradientUnits="userSpaceOnUse">
<stop stop-color="#2EA5EE"/>
<stop offset="1" stop-color="#0078D4"/>
</linearGradient>
<linearGradient id="paint1_linear_211_8602" x1="111.5" y1="0" x2="111" y2="37" gradientUnits="userSpaceOnUse">
<stop stop-color="#2EA5EE"/>
<stop offset="1" stop-color="#0078D4"/>
</linearGradient>
<linearGradient id="paint2_linear_211_8602" x1="111.5" y1="0" x2="111" y2="37" gradientUnits="userSpaceOnUse">
<stop stop-color="#2EA5EE"/>
<stop offset="1" stop-color="#0078D4"/>
</linearGradient>
<linearGradient id="paint3_linear_211_8602" x1="111.5" y1="0" x2="111" y2="37" gradientUnits="userSpaceOnUse">
<stop stop-color="#2EA5EE"/>
<stop offset="1" stop-color="#0078D4"/>
</linearGradient>
<linearGradient id="paint4_linear_211_8602" x1="111.5" y1="0" x2="111" y2="37" gradientUnits="userSpaceOnUse">
<stop stop-color="#2EA5EE"/>
<stop offset="1" stop-color="#0078D4"/>
</linearGradient>
<linearGradient id="paint5_linear_211_8602" x1="111.5" y1="0" x2="111" y2="37" gradientUnits="userSpaceOnUse">
<stop stop-color="#2EA5EE"/>
<stop offset="1" stop-color="#0078D4"/>
</linearGradient>
<linearGradient id="paint6_linear_211_8602" x1="111.5" y1="0" x2="111" y2="37" gradientUnits="userSpaceOnUse">
<stop stop-color="#2EA5EE"/>
<stop offset="1" stop-color="#0078D4"/>
</linearGradient>
<linearGradient id="paint7_linear_211_8602" x1="111.5" y1="0" x2="111" y2="37" gradientUnits="userSpaceOnUse">
<stop stop-color="#2EA5EE"/>
<stop offset="1" stop-color="#0078D4"/>
</linearGradient>
<linearGradient id="paint8_linear_211_8602" x1="111.5" y1="0" x2="111" y2="37" gradientUnits="userSpaceOnUse">
<stop stop-color="#2EA5EE"/>
<stop offset="1" stop-color="#0078D4"/>
</linearGradient>
<linearGradient id="paint9_linear_211_8602" x1="111.5" y1="0" x2="111" y2="37" gradientUnits="userSpaceOnUse">
<stop stop-color="#2EA5EE"/>
<stop offset="1" stop-color="#0078D4"/>
</linearGradient>
<linearGradient id="paint10_linear_211_8602" x1="111.5" y1="0" x2="111" y2="37" gradientUnits="userSpaceOnUse">
<stop stop-color="#2EA5EE"/>
<stop offset="1" stop-color="#0078D4"/>
</linearGradient>
<linearGradient id="paint11_linear_211_8602" x1="111.5" y1="0" x2="111" y2="37" gradientUnits="userSpaceOnUse">
<stop stop-color="#2EA5EE"/>
<stop offset="1" stop-color="#0078D4"/>
</linearGradient>
<linearGradient id="paint12_linear_211_8602" x1="111.5" y1="0" x2="111" y2="37" gradientUnits="userSpaceOnUse">
<stop stop-color="#2EA5EE"/>
<stop offset="1" stop-color="#0078D4"/>
</linearGradient>
<linearGradient id="paint13_linear_211_8602" x1="111.5" y1="0" x2="111" y2="37" gradientUnits="userSpaceOnUse">
<stop stop-color="#2EA5EE"/>
<stop offset="1" stop-color="#0078D4"/>
</linearGradient>
</defs>
</svg>
