<svg width="224" height="83" viewBox="0 0 224 83" fill="none" xmlns="http://www.w3.org/2000/svg">
<rect x="1" y="1" width="222" height="81" rx="40.5" fill="url(#paint0_linear_1771_2062)" stroke="url(#paint1_linear_1771_2062)" stroke-width="2"/>
<path d="M98.4902 32.8477C97.7936 33.2904 97.0319 33.6322 96.2051 33.873C95.3783 34.1139 94.5059 34.2344 93.5879 34.2344C91.5436 34.2344 89.9128 33.6061 88.6953 32.3496C87.4844 31.0931 86.8789 29.3711 86.8789 27.1836C86.8789 24.931 87.5299 23.1309 88.832 21.7832C90.1341 20.4355 91.8301 19.7617 93.9199 19.7617C94.8639 19.7617 95.707 19.9049 96.4492 20.1914C97.1979 20.4779 97.875 20.901 98.4805 21.4609L97.5234 22.5352C97.0286 22.1055 96.485 21.7865 95.8926 21.5781C95.3066 21.3633 94.6458 21.2559 93.9102 21.2559C92.3477 21.2559 91.0716 21.7734 90.082 22.8086C89.0924 23.8438 88.5977 25.263 88.5977 27.0664C88.5977 28.8958 89.0534 30.3021 89.9648 31.2852C90.8763 32.2617 92.1328 32.75 93.7344 32.75C94.3268 32.75 94.8867 32.6849 95.4141 32.5547C95.9479 32.418 96.4264 32.2161 96.8496 31.9492V28.209H93.6758V26.7246H98.4902V32.8477ZM109.545 29.332H102.426C102.439 30.4974 102.732 31.3796 103.305 31.9785C103.884 32.571 104.649 32.8672 105.6 32.8672C106.107 32.8672 106.589 32.7728 107.045 32.584C107.507 32.3952 107.934 32.1022 108.324 31.7051L109.281 32.6719C108.793 33.1667 108.24 33.5508 107.621 33.8242C107.003 34.0977 106.29 34.2344 105.482 34.2344C104.037 34.2344 102.891 33.7884 102.045 32.8965C101.199 32.0046 100.772 30.7383 100.766 29.0977C100.766 27.5221 101.192 26.2396 102.045 25.25C102.904 24.2604 104.014 23.7656 105.375 23.7656C106.697 23.7656 107.722 24.1855 108.451 25.0254C109.18 25.8652 109.545 27.0306 109.545 28.5215V29.332ZM107.904 28.0137C107.904 27.1087 107.676 26.4023 107.221 25.8945C106.765 25.3802 106.14 25.123 105.346 25.123C104.564 25.123 103.91 25.39 103.383 25.9238C102.862 26.4577 102.546 27.1543 102.436 28.0137H107.904ZM116.83 33.6875C116.55 33.8698 116.26 34.0033 115.961 34.0879C115.661 34.1725 115.32 34.2148 114.936 34.2148C114.148 34.2148 113.529 33.987 113.08 33.5312C112.637 33.0755 112.416 32.4082 112.416 31.5293V25.3672H110.697V24H112.416V21.5879L114.018 21.1582V24H116.596V25.3672H114.018V31.3633C114.018 31.8971 114.115 32.2845 114.311 32.5254C114.512 32.7663 114.815 32.8867 115.219 32.8867C115.414 32.8867 115.6 32.8574 115.775 32.7988C115.958 32.7402 116.124 32.6523 116.273 32.5352L116.83 33.6875ZM124.838 21.6562C124.506 21.6562 124.229 21.5456 124.008 21.3242C123.793 21.1029 123.686 20.8327 123.686 20.5137C123.686 20.1947 123.793 19.9245 124.008 19.7031C124.229 19.4818 124.506 19.3711 124.838 19.3711C125.176 19.3711 125.453 19.4818 125.668 19.7031C125.889 19.9245 126 20.1947 126 20.5137C126 20.8327 125.889 21.1029 125.668 21.3242C125.453 21.5456 125.176 21.6562 124.838 21.6562ZM125.619 34H124.018V24H125.619V34ZM133.725 33.6875C133.445 33.8698 133.155 34.0033 132.855 34.0879C132.556 34.1725 132.214 34.2148 131.83 34.2148C131.042 34.2148 130.424 33.987 129.975 33.5312C129.532 33.0755 129.311 32.4082 129.311 31.5293V25.3672H127.592V24H129.311V21.5879L130.912 21.1582V24H133.49V25.3672H130.912V31.3633C130.912 31.8971 131.01 32.2845 131.205 32.5254C131.407 32.7663 131.71 32.8867 132.113 32.8867C132.309 32.8867 132.494 32.8574 132.67 32.7988C132.852 32.7402 133.018 32.6523 133.168 32.5352L133.725 33.6875ZM145.121 34.2344C143.617 34.2344 142.423 33.7689 141.537 32.8379C140.658 31.9069 140.219 30.6667 140.219 29.1172C140.219 27.4701 140.688 26.168 141.625 25.2109C142.562 24.2539 143.796 23.7721 145.326 23.7656C146.824 23.7591 147.995 24.2246 148.842 25.1621C149.695 26.0996 150.121 27.3659 150.121 28.9609C150.121 30.5234 149.669 31.793 148.764 32.7695C147.865 33.7461 146.651 34.2344 145.121 34.2344ZM145.229 32.877C146.257 32.877 147.055 32.5417 147.621 31.8711C148.194 31.194 148.48 30.2435 148.48 29.0195C148.48 27.8021 148.194 26.8516 147.621 26.168C147.048 25.4779 146.251 25.1328 145.229 25.1328C144.206 25.1328 143.389 25.4876 142.777 26.1973C142.165 26.9069 141.859 27.8607 141.859 29.0586C141.859 30.2565 142.169 31.194 142.787 31.8711C143.406 32.5417 144.219 32.877 145.229 32.877ZM160.922 34H159.32V28.209C159.32 27.1803 159.128 26.4089 158.744 25.8945C158.367 25.3802 157.794 25.123 157.025 25.123C156.205 25.123 155.531 25.4258 155.004 26.0312C154.483 26.6302 154.223 27.3854 154.223 28.2969V34H152.621V24H154.223V25.5723H154.262C154.639 24.9733 155.102 24.5241 155.648 24.2246C156.195 23.9186 156.827 23.7656 157.543 23.7656C158.637 23.7656 159.473 24.1204 160.053 24.8301C160.632 25.5332 160.922 26.5521 160.922 27.8867V34Z" fill="white"/>
<path d="M32.8249 40.5165C38.8034 40.5165 43.6498 35.6701 43.6498 29.6916C43.6498 23.7132 38.8034 18.8667 32.8249 18.8667C26.8465 18.8667 22 23.7132 22 29.6916C22 35.6701 26.8465 40.5165 32.8249 40.5165Z" fill="white"/>
<path d="M37.2536 44.8657H28.3902C25.593 44.8657 23.3254 47.1333 23.3254 49.9305V58.794C23.3254 61.5912 25.593 63.8588 28.3902 63.8588H37.2536C40.0508 63.8588 42.3184 61.5912 42.3184 58.794V49.9305C42.3184 47.1333 40.0508 44.8657 37.2536 44.8657Z" fill="white"/>
<path d="M67.335 27.1099L65.3936 25.9891L54.2211 19.5387C53.7533 19.2686 53.2227 19.1264 52.6825 19.1264C52.1424 19.1263 51.6117 19.2685 51.1439 19.5386C50.6761 19.8087 50.2877 20.1971 50.0176 20.6649C49.7475 21.1327 49.6054 21.6634 49.6054 22.2035L49.6056 37.346C49.6056 37.8861 49.7478 38.4167 50.0179 38.8845C50.288 39.3523 50.6764 39.7407 51.1442 40.0108C51.612 40.2809 52.1426 40.423 52.6827 40.423C53.2229 40.423 53.7535 40.2809 54.2213 40.0108L67.3351 32.4398C67.8029 32.1697 68.1914 31.7813 68.4615 31.3135C68.7315 30.8457 68.8737 30.315 68.8737 29.7749C68.8737 29.2347 68.7315 28.7041 68.4614 28.2363C68.1914 27.7685 67.8028 27.38 67.335 27.1099Z" fill="white"/>
<path d="M66.6835 54.413C66.6835 55.4652 65.8364 56.3123 64.7842 56.3123H49.5898C48.5376 56.3123 47.6905 55.4653 47.6905 54.413C47.6905 53.3608 48.5375 52.5137 49.5898 52.5137H64.7842C65.8364 52.5137 66.6835 53.3608 66.6835 54.413ZM57.187 44.9165C58.2392 44.9165 59.0863 45.7636 59.0863 46.8158V62.0103C59.0863 63.0625 58.2392 63.9096 57.187 63.9096C56.1348 63.9096 55.2877 63.0625 55.2877 62.0103V46.8158C55.2877 45.7636 56.1348 44.9165 57.187 44.9165Z" fill="white"/>
<path d="M90.8 63.0551H87V41.9551H100.5V45.1551H90.8V50.8551H99.6V54.0551H90.8V63.0551ZM103.8 41.9551H107.5V63.0551H103.8V41.9551ZM115.9 63.3551C114.9 63.3551 114 63.1884 113.2 62.8551C112.4 62.4551 111.767 61.9217 111.3 61.2551C110.833 60.5217 110.6 59.6551 110.6 58.6551C110.6 57.7217 110.767 56.9884 111.1 56.4551C111.433 55.8551 111.9 55.3884 112.5 55.0551C113.033 54.6551 113.667 54.3884 114.4 54.2551C115.133 54.0551 115.867 53.9217 116.6 53.8551C117.533 53.7217 118.3 53.6217 118.9 53.5551C119.433 53.4884 119.833 53.3551 120.1 53.1551C120.367 53.0217 120.5 52.7551 120.5 52.3551C120.5 51.5551 120.267 50.9551 119.8 50.5551C119.4 50.0884 118.767 49.8551 117.9 49.8551C116.967 49.8551 116.233 50.0551 115.7 50.4551C115.167 50.8551 114.8 51.3217 114.6 51.8551L111.1 51.3551C111.367 50.4217 111.833 49.6217 112.5 48.9551C113.1 48.3551 113.867 47.8884 114.8 47.5551C115.733 47.2217 116.733 47.0551 117.8 47.0551C118.6 47.0551 119.367 47.1217 120.1 47.2551C120.833 47.4551 121.533 47.7551 122.2 48.1551C122.8 48.5551 123.3 49.1217 123.7 49.8551C124.1 50.5217 124.3 51.3884 124.3 52.4551V63.0551H120.7V60.8551H120.6C120.333 61.3217 120 61.7551 119.6 62.1551C119.2 62.4884 118.7 62.7884 118.1 63.0551C117.433 63.2551 116.7 63.3551 115.9 63.3551ZM116.9 60.6551C117.633 60.6551 118.267 60.4884 118.8 60.1551C119.333 59.8884 119.767 59.4884 120.1 58.9551C120.367 58.4884 120.5 57.9551 120.5 57.3551V55.5551C120.433 55.6217 120.267 55.6884 120 55.7551C119.667 55.8884 119.333 55.9884 119 56.0551C118.667 56.0551 118.333 56.0884 118 56.1551C117.667 56.2217 117.367 56.2551 117.1 56.2551C116.567 56.3884 116.067 56.5217 115.6 56.6551C115.2 56.8551 114.867 57.0884 114.6 57.3551C114.333 57.6884 114.2 58.0884 114.2 58.5551C114.2 59.2217 114.467 59.7551 115 60.1551C115.467 60.4884 116.1 60.6551 116.9 60.6551ZM126.8 47.2551H135.9V50.1551H126.8V47.2551ZM129.1 58.9551V43.4551H132.8V58.2551C132.8 58.7884 132.867 59.1884 133 59.4551C133.2 59.7217 133.4 59.8884 133.6 59.9551C133.867 60.0884 134.167 60.1551 134.5 60.1551C134.7 60.1551 134.9 60.1217 135.1 60.0551C135.3 60.0551 135.467 60.0217 135.6 59.9551L136.2 62.9551C136 63.0217 135.733 63.0884 135.4 63.1551C135 63.2217 134.533 63.2551 134 63.2551C133.067 63.3217 132.233 63.1884 131.5 62.8551C130.767 62.5217 130.167 62.0217 129.7 61.3551C129.3 60.6884 129.1 59.8884 129.1 58.9551ZM142.8 53.7551V63.0551H139V41.9551H142.7V49.9551H142.9C143.233 49.0217 143.8 48.3217 144.6 47.8551C145.4 47.3217 146.4 47.0551 147.6 47.0551C148.667 47.0551 149.6 47.2884 150.4 47.7551C151.267 48.2217 151.9 48.8884 152.3 49.7551C152.767 50.6217 153 51.6884 153 52.9551V63.0551H149.3V53.5551C149.3 52.4884 149.033 51.6551 148.5 51.0551C147.967 50.4551 147.2 50.1551 146.2 50.1551C145.533 50.1551 144.933 50.3217 144.4 50.6551C143.867 50.9217 143.467 51.3217 143.2 51.8551C142.933 52.3884 142.8 53.0217 142.8 53.7551ZM166.9 56.4551V47.2551H170.6V63.0551H167V60.2551H166.8C166.467 61.1217 165.9 61.8551 165.1 62.4551C164.3 62.9884 163.3 63.2551 162.1 63.2551C161.033 63.2551 160.1 63.0217 159.3 62.5551C158.567 62.0884 157.967 61.4217 157.5 60.5551C157.033 59.6884 156.8 58.6217 156.8 57.3551V47.2551H160.5V56.7551C160.5 57.7551 160.8 58.5551 161.4 59.1551C161.933 59.7551 162.633 60.0551 163.5 60.0551C164.1 60.0551 164.633 59.9217 165.1 59.6551C165.633 59.3884 166.067 58.9884 166.4 58.4551C166.733 57.9217 166.9 57.2551 166.9 56.4551ZM178.3 63.0551H174.6V41.9551H178.3V49.8551H178.5C178.7 49.4551 178.967 49.0551 179.3 48.6551C179.633 48.1884 180.1 47.7884 180.7 47.4551C181.3 47.1884 182.067 47.0551 183 47.0551C184.267 47.0551 185.367 47.3551 186.3 47.9551C187.3 48.5551 188.1 49.4884 188.7 50.7551C189.3 51.9551 189.6 53.4217 189.6 55.1551C189.6 56.8884 189.3 58.3551 188.7 59.5551C188.1 60.8217 187.333 61.7551 186.4 62.3551C185.4 63.0217 184.267 63.3551 183 63.3551C182.133 63.3551 181.4 63.1884 180.8 62.8551C180.2 62.5884 179.7 62.2217 179.3 61.7551C178.967 61.3551 178.7 60.9551 178.5 60.5551H178.3V63.0551ZM178.3 55.1551C178.3 56.1551 178.433 57.0551 178.7 57.8551C179.033 58.5884 179.467 59.1884 180 59.6551C180.533 60.0551 181.2 60.2551 182 60.2551C182.8 60.2551 183.5 60.0551 184.1 59.6551C184.633 59.1884 185.033 58.5551 185.3 57.7551C185.633 57.0217 185.8 56.1551 185.8 55.1551C185.8 54.1551 185.633 53.2884 185.3 52.5551C185.033 51.7551 184.633 51.1551 184.1 50.7551C183.5 50.2884 182.8 50.0551 182 50.0551C181.2 50.0551 180.533 50.2884 180 50.7551C179.4 51.1551 178.967 51.7217 178.7 52.4551C178.433 53.2551 178.3 54.1551 178.3 55.1551Z" fill="white"/>
<defs>
<linearGradient id="paint0_linear_1771_2062" x1="112" y1="0" x2="112" y2="83" gradientUnits="userSpaceOnUse">
<stop/>
<stop offset="1" stop-color="#162D4F"/>
</linearGradient>
<linearGradient id="paint1_linear_1771_2062" x1="112" y1="0" x2="112" y2="83" gradientUnits="userSpaceOnUse">
<stop stop-color="#232323"/>
<stop offset="1" stop-color="#293C58"/>
</linearGradient>
</defs>
</svg>
