<svg width="259" height="83" viewBox="0 0 259 83" fill="none" xmlns="http://www.w3.org/2000/svg">
<rect x="1" y="1" width="257" height="81" rx="40.5" fill="url(#paint0_linear_1771_2022)" stroke="url(#paint1_linear_1771_2022)" stroke-width="2"/>
<path d="M80.7494 34V19.9961H84.6165C87.071 19.9961 88.9167 20.5625 90.1537 21.6953C91.3971 22.8216 92.0189 24.5306 92.0189 26.8223C92.0189 29.0163 91.3353 30.7611 89.9681 32.0566C88.6009 33.3522 86.765 34 84.4603 34H80.7494ZM82.39 21.4805V32.5156H84.4798C86.3158 32.5156 87.7448 32.0339 88.7669 31.0703C89.7891 30.1003 90.3001 28.6973 90.3001 26.8613C90.3001 25.0319 89.8249 23.6777 88.8744 22.7988C87.9238 21.9199 86.4915 21.4805 84.5775 21.4805H82.39ZM98.7181 34.2344C97.2142 34.2344 96.0195 33.7689 95.1341 32.8379C94.2552 31.9069 93.8158 30.6667 93.8158 29.1172C93.8158 27.4701 94.2845 26.168 95.222 25.2109C96.1595 24.2539 97.3932 23.7721 98.9232 23.7656C100.421 23.7591 101.592 24.2246 102.439 25.1621C103.292 26.0996 103.718 27.3659 103.718 28.9609C103.718 30.5234 103.266 31.793 102.361 32.7695C101.462 33.7461 100.248 34.2344 98.7181 34.2344ZM98.8255 32.877C99.8542 32.877 100.652 32.5417 101.218 31.8711C101.791 31.194 102.077 30.2435 102.077 29.0195C102.077 27.8021 101.791 26.8516 101.218 26.168C100.645 25.4779 99.8477 25.1328 98.8255 25.1328C97.8034 25.1328 96.9863 25.4876 96.3744 26.1973C95.7624 26.9069 95.4564 27.8607 95.4564 29.0586C95.4564 30.2565 95.7656 31.194 96.3841 31.8711C97.0026 32.5417 97.8164 32.877 98.8255 32.877ZM118.845 24L115.847 34H114.187L112.117 26.832C112.064 26.6432 112.029 26.5 112.009 26.4023C111.996 26.2982 111.98 26.1647 111.96 26.002H111.921C111.902 26.1647 111.876 26.2982 111.843 26.4023C111.817 26.5065 111.778 26.6465 111.726 26.8223L109.49 34H107.868L104.841 24H106.521L108.591 31.4707C108.624 31.5814 108.65 31.7018 108.669 31.832C108.695 31.9622 108.715 32.1152 108.728 32.291H108.806C108.826 32.1413 108.848 32.0013 108.874 31.8711C108.9 31.7409 108.936 31.6009 108.982 31.4512L111.286 24H112.771L114.841 31.4902C114.867 31.6009 114.893 31.7246 114.919 31.8613C114.945 31.9915 114.968 32.138 114.988 32.3008H115.066C115.079 32.1706 115.098 32.0436 115.124 31.9199C115.15 31.7962 115.186 31.653 115.232 31.4902L117.263 24H118.845ZM128.933 34H127.331V28.209C127.331 27.1803 127.139 26.4089 126.755 25.8945C126.378 25.3802 125.805 25.123 125.036 25.123C124.216 25.123 123.542 25.4258 123.015 26.0312C122.494 26.6302 122.234 27.3854 122.234 28.2969V34H120.632V24H122.234V25.5723H122.273C122.65 24.9733 123.113 24.5241 123.66 24.2246C124.206 23.9186 124.838 23.7656 125.554 23.7656C126.648 23.7656 127.484 24.1204 128.064 24.8301C128.643 25.5332 128.933 26.5521 128.933 27.8867V34ZM131.882 34V19.1953H133.484V34H131.882ZM140.886 34.2344C139.382 34.2344 138.188 33.7689 137.302 32.8379C136.423 31.9069 135.984 30.6667 135.984 29.1172C135.984 27.4701 136.452 26.168 137.39 25.2109C138.327 24.2539 139.561 23.7721 141.091 23.7656C142.589 23.7591 143.76 24.2246 144.607 25.1621C145.46 26.0996 145.886 27.3659 145.886 28.9609C145.886 30.5234 145.434 31.793 144.529 32.7695C143.63 33.7461 142.416 34.2344 140.886 34.2344ZM140.993 32.877C142.022 32.877 142.82 32.5417 143.386 31.8711C143.959 31.194 144.245 30.2435 144.245 29.0195C144.245 27.8021 143.959 26.8516 143.386 26.168C142.813 25.4779 142.016 25.1328 140.993 25.1328C139.971 25.1328 139.154 25.4876 138.542 26.1973C137.93 26.9069 137.624 27.8607 137.624 29.0586C137.624 30.2565 137.934 31.194 138.552 31.8711C139.171 32.5417 139.984 32.877 140.993 32.877ZM155.466 34H153.865V32.5254H153.826C153.487 33.0853 153.061 33.5117 152.546 33.8047C152.038 34.0911 151.459 34.2344 150.808 34.2344C149.844 34.2344 149.076 33.9642 148.503 33.4238C147.93 32.877 147.644 32.1706 147.644 31.3047C147.644 30.4258 147.937 29.7129 148.523 29.166C149.109 28.6191 149.936 28.2741 151.003 28.1309L153.865 27.7695V27.3984C153.865 26.5977 153.673 26.0182 153.288 25.6602C152.904 25.3021 152.387 25.123 151.736 25.123C151.182 25.123 150.678 25.237 150.222 25.4648C149.766 25.6927 149.366 26.0247 149.021 26.4609L147.917 25.6406C148.386 25.0221 148.946 24.5566 149.597 24.2441C150.248 23.9251 150.993 23.7656 151.833 23.7656C153.025 23.7656 153.926 24.0781 154.538 24.7031C155.157 25.3216 155.466 26.2298 155.466 27.4277V34ZM153.865 29.9375V29.0586L151.316 29.3809C150.626 29.472 150.108 29.6543 149.763 29.9277C149.424 30.2012 149.255 30.6048 149.255 31.1387C149.255 31.7051 149.428 32.1478 149.773 32.4668C150.118 32.7793 150.551 32.9355 151.072 32.9355C151.918 32.9355 152.595 32.6523 153.103 32.0859C153.611 31.5195 153.865 30.8034 153.865 29.9375ZM165.417 32.3887C165.046 33.0007 164.574 33.4629 164.001 33.7754C163.428 34.0814 162.768 34.2344 162.019 34.2344C160.71 34.2344 159.675 33.7884 158.913 32.8965C158.158 31.998 157.781 30.7773 157.781 29.2344C157.781 27.5677 158.204 26.2396 159.05 25.25C159.896 24.2604 161.013 23.7656 162.4 23.7656C163.09 23.7656 163.689 23.8958 164.197 24.1562C164.704 24.4167 165.111 24.7975 165.417 25.2988H165.456V19.1953H167.058V34H165.456V32.3887H165.417ZM159.421 29.1562C159.421 30.3021 159.688 31.2103 160.222 31.8809C160.756 32.5449 161.479 32.877 162.39 32.877C163.314 32.877 164.057 32.5547 164.617 31.9102C165.176 31.2656 165.456 30.4551 165.456 29.4785V28.0039C165.456 27.2031 165.186 26.5228 164.646 25.9629C164.105 25.403 163.415 25.123 162.576 25.123C161.605 25.123 160.837 25.4779 160.271 26.1875C159.704 26.8906 159.421 27.8802 159.421 29.1562ZM179.656 34.2344C178.152 34.2344 176.957 33.7689 176.072 32.8379C175.193 31.9069 174.753 30.6667 174.753 29.1172C174.753 27.4701 175.222 26.168 176.16 25.2109C177.097 24.2539 178.331 23.7721 179.861 23.7656C181.358 23.7591 182.53 24.2246 183.376 25.1621C184.229 26.0996 184.656 27.3659 184.656 28.9609C184.656 30.5234 184.203 31.793 183.298 32.7695C182.4 33.7461 181.186 34.2344 179.656 34.2344ZM179.763 32.877C180.792 32.877 181.589 32.5417 182.156 31.8711C182.729 31.194 183.015 30.2435 183.015 29.0195C183.015 27.8021 182.729 26.8516 182.156 26.168C181.583 25.4779 180.785 25.1328 179.763 25.1328C178.741 25.1328 177.924 25.4876 177.312 26.1973C176.7 26.9069 176.394 27.8607 176.394 29.0586C176.394 30.2565 176.703 31.194 177.322 31.8711C177.94 32.5417 178.754 32.877 179.763 32.877ZM195.456 34H193.855V28.209C193.855 27.1803 193.663 26.4089 193.279 25.8945C192.901 25.3802 192.328 25.123 191.56 25.123C190.74 25.123 190.066 25.4258 189.538 26.0312C189.018 26.6302 188.757 27.3854 188.757 28.2969V34H187.156V24H188.757V25.5723H188.796C189.174 24.9733 189.636 24.5241 190.183 24.2246C190.73 23.9186 191.361 23.7656 192.077 23.7656C193.171 23.7656 194.008 24.1204 194.587 24.8301C195.167 25.5332 195.456 26.5521 195.456 27.8867V34ZM208.533 33.6875C208.253 33.8698 207.963 34.0033 207.663 34.0879C207.364 34.1725 207.022 34.2148 206.638 34.2148C205.85 34.2148 205.232 33.987 204.783 33.5312C204.34 33.0755 204.118 32.4082 204.118 31.5293V25.3672H202.4V24H204.118V21.5879L205.72 21.1582V24H208.298V25.3672H205.72V31.3633C205.72 31.8971 205.818 32.2845 206.013 32.5254C206.215 32.7663 206.518 32.8867 206.921 32.8867C207.117 32.8867 207.302 32.8574 207.478 32.7988C207.66 32.7402 207.826 32.6523 207.976 32.5352L208.533 33.6875ZM218.816 34H217.214V28.1699C217.214 27.1543 217.022 26.3926 216.638 25.8848C216.26 25.377 215.688 25.123 214.919 25.123C214.112 25.123 213.441 25.4258 212.908 26.0312C212.38 26.6302 212.117 27.3952 212.117 28.3262V34H210.515V19.1953H212.117V25.5723H212.156C212.54 24.9733 213.005 24.5241 213.552 24.2246C214.099 23.9186 214.727 23.7656 215.437 23.7656C216.55 23.7656 217.39 24.1107 217.956 24.8008C218.529 25.4844 218.816 26.5033 218.816 27.8574V34ZM229.861 29.332H222.742C222.755 30.4974 223.048 31.3796 223.62 31.9785C224.2 32.571 224.965 32.8672 225.915 32.8672C226.423 32.8672 226.905 32.7728 227.361 32.584C227.823 32.3952 228.249 32.1022 228.64 31.7051L229.597 32.6719C229.109 33.1667 228.555 33.5508 227.937 33.8242C227.318 34.0977 226.605 34.2344 225.798 34.2344C224.353 34.2344 223.207 33.7884 222.361 32.8965C221.514 32.0046 221.088 30.7383 221.081 29.0977C221.081 27.5221 221.508 26.2396 222.361 25.25C223.22 24.2604 224.33 23.7656 225.691 23.7656C227.012 23.7656 228.038 24.1855 228.767 25.0254C229.496 25.8652 229.861 27.0306 229.861 28.5215V29.332ZM228.22 28.0137C228.22 27.1087 227.992 26.4023 227.536 25.8945C227.081 25.3802 226.456 25.123 225.661 25.123C224.88 25.123 224.226 25.39 223.699 25.9238C223.178 26.4577 222.862 27.1543 222.751 28.0137H228.22Z" fill="white"/>
<path d="M84.675 43.15H88L94.875 61H91.525L89.85 56.275H82.725L81.05 61H77.825L84.675 43.15ZM83.575 53.9H89.025L86.35 46.225H86.275L83.575 53.9ZM96.2498 48.075H98.9498V49.825H98.9998C99.3998 49.075 99.9581 48.5417 100.675 48.225C101.391 47.8917 102.166 47.725 103 47.725C104.016 47.725 104.9 47.9083 105.65 48.275C106.416 48.625 107.05 49.1167 107.55 49.75C108.05 50.3667 108.425 51.0917 108.675 51.925C108.925 52.7583 109.05 53.65 109.05 54.6C109.05 55.4667 108.933 56.3083 108.7 57.125C108.483 57.9417 108.141 58.6667 107.675 59.3C107.225 59.9167 106.65 60.4167 105.95 60.8C105.25 61.1667 104.425 61.35 103.475 61.35C103.058 61.35 102.641 61.3083 102.225 61.225C101.808 61.1583 101.408 61.0417 101.025 60.875C100.641 60.7083 100.283 60.5 99.9498 60.25C99.6331 59.9833 99.3665 59.675 99.1498 59.325H99.0998V65.775H96.2498V48.075ZM106.2 54.55C106.2 53.9667 106.125 53.4 105.975 52.85C105.825 52.3 105.6 51.8167 105.3 51.4C105 50.9667 104.625 50.625 104.175 50.375C103.725 50.1083 103.208 49.975 102.625 49.975C101.425 49.975 100.516 50.3917 99.8998 51.225C99.2998 52.0583 98.9998 53.1667 98.9998 54.55C98.9998 55.2 99.0748 55.8083 99.2248 56.375C99.3915 56.925 99.6331 57.4 99.9498 57.8C100.266 58.2 100.641 58.5167 101.075 58.75C101.525 58.9833 102.041 59.1 102.625 59.1C103.275 59.1 103.825 58.9667 104.275 58.7C104.725 58.4333 105.091 58.0917 105.375 57.675C105.675 57.2417 105.883 56.7583 106 56.225C106.133 55.675 106.2 55.1167 106.2 54.55ZM111.533 48.075H114.233V49.825H114.283C114.683 49.075 115.241 48.5417 115.958 48.225C116.675 47.8917 117.45 47.725 118.283 47.725C119.3 47.725 120.183 47.9083 120.933 48.275C121.7 48.625 122.333 49.1167 122.833 49.75C123.333 50.3667 123.708 51.0917 123.958 51.925C124.208 52.7583 124.333 53.65 124.333 54.6C124.333 55.4667 124.216 56.3083 123.983 57.125C123.766 57.9417 123.425 58.6667 122.958 59.3C122.508 59.9167 121.933 60.4167 121.233 60.8C120.533 61.1667 119.708 61.35 118.758 61.35C118.341 61.35 117.925 61.3083 117.508 61.225C117.091 61.1583 116.691 61.0417 116.308 60.875C115.925 60.7083 115.566 60.5 115.233 60.25C114.916 59.9833 114.65 59.675 114.433 59.325H114.383V65.775H111.533V48.075ZM121.483 54.55C121.483 53.9667 121.408 53.4 121.258 52.85C121.108 52.3 120.883 51.8167 120.583 51.4C120.283 50.9667 119.908 50.625 119.458 50.375C119.008 50.1083 118.491 49.975 117.908 49.975C116.708 49.975 115.8 50.3917 115.183 51.225C114.583 52.0583 114.283 53.1667 114.283 54.55C114.283 55.2 114.358 55.8083 114.508 56.375C114.675 56.925 114.916 57.4 115.233 57.8C115.55 58.2 115.925 58.5167 116.358 58.75C116.808 58.9833 117.325 59.1 117.908 59.1C118.558 59.1 119.108 58.9667 119.558 58.7C120.008 58.4333 120.375 58.0917 120.658 57.675C120.958 57.2417 121.166 56.7583 121.283 56.225C121.416 55.675 121.483 55.1167 121.483 54.55ZM136.149 55.05C136.149 55.7333 136.266 56.3167 136.499 56.8C136.733 57.2833 137.058 57.6833 137.474 58C137.891 58.3 138.366 58.525 138.899 58.675C139.449 58.8083 140.041 58.875 140.674 58.875C141.358 58.875 141.941 58.8 142.424 58.65C142.908 58.4833 143.299 58.275 143.599 58.025C143.899 57.775 144.116 57.4917 144.249 57.175C144.383 56.8417 144.449 56.5083 144.449 56.175C144.449 55.4917 144.291 54.9917 143.974 54.675C143.674 54.3417 143.341 54.1083 142.974 53.975C142.341 53.7417 141.599 53.525 140.749 53.325C139.916 53.1083 138.883 52.8333 137.649 52.5C136.883 52.3 136.241 52.0417 135.724 51.725C135.224 51.3917 134.824 51.025 134.524 50.625C134.224 50.225 134.008 49.8 133.874 49.35C133.758 48.9 133.699 48.4417 133.699 47.975C133.699 47.075 133.883 46.3 134.249 45.65C134.633 44.9833 135.133 44.4333 135.749 44C136.366 43.5667 137.066 43.25 137.849 43.05C138.633 42.8333 139.424 42.725 140.224 42.725C141.158 42.725 142.033 42.85 142.849 43.1C143.683 43.3333 144.408 43.6917 145.024 44.175C145.658 44.6583 146.158 45.2583 146.524 45.975C146.891 46.675 147.074 47.4917 147.074 48.425H143.949C143.866 47.275 143.474 46.4667 142.774 46C142.074 45.5167 141.183 45.275 140.099 45.275C139.733 45.275 139.358 45.3167 138.974 45.4C138.591 45.4667 138.241 45.5917 137.924 45.775C137.608 45.9417 137.341 46.175 137.124 46.475C136.924 46.775 136.824 47.15 136.824 47.6C136.824 48.2333 137.016 48.7333 137.399 49.1C137.799 49.45 138.316 49.7167 138.949 49.9C139.016 49.9167 139.274 49.9917 139.724 50.125C140.191 50.2417 140.708 50.375 141.274 50.525C141.841 50.675 142.391 50.825 142.924 50.975C143.474 51.1083 143.866 51.2083 144.099 51.275C144.683 51.4583 145.191 51.7083 145.624 52.025C146.058 52.3417 146.416 52.7083 146.699 53.125C146.999 53.525 147.216 53.9583 147.349 54.425C147.499 54.8917 147.574 55.3583 147.574 55.825C147.574 56.825 147.366 57.6833 146.949 58.4C146.549 59.1 146.016 59.675 145.349 60.125C144.683 60.575 143.924 60.9 143.074 61.1C142.224 61.3167 141.358 61.425 140.474 61.425C139.458 61.425 138.499 61.3 137.599 61.05C136.699 60.8 135.916 60.4167 135.249 59.9C134.583 59.3833 134.049 58.725 133.649 57.925C133.249 57.1083 133.041 56.15 133.024 55.05H136.149ZM148.61 48.075H150.76V44.2H153.61V48.075H156.185V50.2H153.61V57.1C153.61 57.4 153.618 57.6583 153.635 57.875C153.668 58.0917 153.727 58.275 153.81 58.425C153.91 58.575 154.052 58.6917 154.235 58.775C154.418 58.8417 154.668 58.875 154.985 58.875C155.185 58.875 155.385 58.875 155.585 58.875C155.785 58.8583 155.985 58.825 156.185 58.775V60.975C155.868 61.0083 155.56 61.0417 155.26 61.075C154.96 61.1083 154.652 61.125 154.335 61.125C153.585 61.125 152.977 61.0583 152.51 60.925C152.06 60.775 151.702 60.5667 151.435 60.3C151.185 60.0167 151.01 59.6667 150.91 59.25C150.827 58.8333 150.777 58.3583 150.76 57.825V50.2H148.61V48.075ZM164.16 61.35C163.127 61.35 162.202 61.1833 161.385 60.85C160.585 60.5 159.902 60.025 159.335 59.425C158.785 58.825 158.36 58.1083 158.06 57.275C157.777 56.4417 157.635 55.525 157.635 54.525C157.635 53.5417 157.777 52.6333 158.06 51.8C158.36 50.9667 158.785 50.25 159.335 49.65C159.902 49.05 160.585 48.5833 161.385 48.25C162.202 47.9 163.127 47.725 164.16 47.725C165.194 47.725 166.11 47.9 166.91 48.25C167.727 48.5833 168.41 49.05 168.96 49.65C169.527 50.25 169.952 50.9667 170.235 51.8C170.535 52.6333 170.685 53.5417 170.685 54.525C170.685 55.525 170.535 56.4417 170.235 57.275C169.952 58.1083 169.527 58.825 168.96 59.425C168.41 60.025 167.727 60.5 166.91 60.85C166.11 61.1833 165.194 61.35 164.16 61.35ZM164.16 59.1C164.794 59.1 165.344 58.9667 165.81 58.7C166.277 58.4333 166.66 58.0833 166.96 57.65C167.26 57.2167 167.477 56.7333 167.61 56.2C167.76 55.65 167.835 55.0917 167.835 54.525C167.835 53.975 167.76 53.425 167.61 52.875C167.477 52.325 167.26 51.8417 166.96 51.425C166.66 50.9917 166.277 50.6417 165.81 50.375C165.344 50.1083 164.794 49.975 164.16 49.975C163.527 49.975 162.977 50.1083 162.51 50.375C162.044 50.6417 161.66 50.9917 161.36 51.425C161.06 51.8417 160.835 52.325 160.685 52.875C160.552 53.425 160.485 53.975 160.485 54.525C160.485 55.0917 160.552 55.65 160.685 56.2C160.835 56.7333 161.06 57.2167 161.36 57.65C161.66 58.0833 162.044 58.4333 162.51 58.7C162.977 58.9667 163.527 59.1 164.16 59.1ZM173.055 48.075H175.73V50.575H175.78C175.863 50.225 176.021 49.8833 176.255 49.55C176.505 49.2167 176.796 48.9167 177.13 48.65C177.48 48.3667 177.863 48.1417 178.28 47.975C178.696 47.8083 179.121 47.725 179.555 47.725C179.888 47.725 180.113 47.7333 180.23 47.75C180.363 47.7667 180.496 47.7833 180.63 47.8V50.55C180.43 50.5167 180.221 50.4917 180.005 50.475C179.805 50.4417 179.605 50.425 179.405 50.425C178.921 50.425 178.463 50.525 178.03 50.725C177.613 50.9083 177.246 51.1917 176.93 51.575C176.613 51.9417 176.363 52.4 176.18 52.95C175.996 53.5 175.905 54.1333 175.905 54.85V61H173.055V48.075ZM190.279 53.4C190.246 52.95 190.146 52.5167 189.979 52.1C189.829 51.6833 189.613 51.325 189.329 51.025C189.063 50.7083 188.729 50.4583 188.329 50.275C187.946 50.075 187.513 49.975 187.029 49.975C186.529 49.975 186.071 50.0667 185.654 50.25C185.254 50.4167 184.904 50.6583 184.604 50.975C184.321 51.275 184.088 51.6333 183.904 52.05C183.738 52.4667 183.646 52.9167 183.629 53.4H190.279ZM183.629 55.275C183.629 55.775 183.696 56.2583 183.829 56.725C183.979 57.1917 184.196 57.6 184.479 57.95C184.763 58.3 185.121 58.5833 185.554 58.8C185.988 59 186.504 59.1 187.104 59.1C187.938 59.1 188.604 58.925 189.104 58.575C189.621 58.2083 190.004 57.6667 190.254 56.95H192.954C192.804 57.65 192.546 58.275 192.179 58.825C191.813 59.375 191.371 59.8417 190.854 60.225C190.338 60.5917 189.754 60.8667 189.104 61.05C188.471 61.25 187.804 61.35 187.104 61.35C186.088 61.35 185.188 61.1833 184.404 60.85C183.621 60.5167 182.954 60.05 182.404 59.45C181.871 58.85 181.463 58.1333 181.179 57.3C180.913 56.4667 180.779 55.55 180.779 54.55C180.779 53.6333 180.921 52.7667 181.204 51.95C181.504 51.1167 181.921 50.3917 182.454 49.775C183.004 49.1417 183.663 48.6417 184.429 48.275C185.196 47.9083 186.063 47.725 187.029 47.725C188.046 47.725 188.954 47.9417 189.754 48.375C190.571 48.7917 191.246 49.35 191.779 50.05C192.313 50.75 192.696 51.5583 192.929 52.475C193.179 53.375 193.246 54.3083 193.129 55.275H183.629Z" fill="white"/>
<path d="M60.6335 53.1418C59.8766 54.9034 58.9807 56.525 57.9427 58.0158C56.5278 60.0482 55.3693 61.455 54.4765 62.2363C53.0925 63.5186 51.6096 64.1753 50.0217 64.2127C48.8818 64.2127 47.507 63.8858 45.9067 63.2229C44.3012 62.5631 42.8258 62.2363 41.4767 62.2363C40.0618 62.2363 38.5443 62.5631 36.9212 63.2229C35.2956 63.8858 33.986 64.2313 32.9848 64.2656C31.4621 64.3309 29.9443 63.6555 28.4293 62.2363C27.4623 61.3866 26.2529 59.93 24.804 57.8664C23.2495 55.6628 21.9714 53.1075 20.9702 50.1943C19.8979 47.0477 19.3603 44.0006 19.3603 41.0506C19.3603 37.6715 20.0851 34.757 21.5367 32.3147C22.6776 30.353 24.1954 28.8055 26.095 27.6694C27.9946 26.5334 30.0472 25.9545 32.2576 25.9174C33.467 25.9174 35.0531 26.2944 37.0241 27.0351C38.9895 27.7784 40.2515 28.1553 40.8048 28.1553C41.2184 28.1553 42.6203 27.7146 44.9969 26.8359C47.2444 26.0211 49.1413 25.6837 50.6952 25.8166C54.9059 26.159 58.0694 27.8313 60.1732 30.8441C56.4073 33.1429 54.5445 36.3627 54.5815 40.4932C54.6155 43.7105 55.774 46.3878 58.0508 48.5136C59.0827 49.5002 60.235 50.2628 61.517 50.8044C61.239 51.6167 60.9455 52.3948 60.6335 53.1418ZM50.9763 14.8559C50.9763 17.3776 50.0619 19.7321 48.2392 21.9115C46.0396 24.5022 43.3791 25.9993 40.494 25.7631C40.4572 25.4605 40.4359 25.1421 40.4359 24.8076C40.4359 22.3867 41.4819 19.7959 43.3395 17.6776C44.2669 16.6051 45.4464 15.7133 46.8768 15.0019C48.3041 14.3011 49.6541 13.9135 50.9238 13.8472C50.9609 14.1843 50.9763 14.5214 50.9763 14.8559Z" fill="white"/>
<defs>
<linearGradient id="paint0_linear_1771_2022" x1="129.5" y1="0" x2="129.5" y2="83" gradientUnits="userSpaceOnUse">
<stop stop-color="#22B4F8"/>
<stop offset="1" stop-color="#1B66EF"/>
</linearGradient>
<linearGradient id="paint1_linear_1771_2022" x1="129.5" y1="0" x2="129.5" y2="83" gradientUnits="userSpaceOnUse">
<stop stop-color="#37C0FF"/>
<stop offset="1" stop-color="#2D62C1"/>
</linearGradient>
</defs>
</svg>
