<svg width="232" height="83" viewBox="0 0 232 83" fill="none" xmlns="http://www.w3.org/2000/svg">
<rect x="1" y="1" width="230" height="81" rx="40.5" fill="url(#paint0_linear_1772_1953)" stroke="url(#paint1_linear_1772_1953)" stroke-width="2"/>
<path d="M109.365 63H106.139V50.4902C106.139 49.9707 106.143 49.474 106.152 49C106.161 48.5169 106.175 47.9701 106.193 47.3594H106.125C106.034 47.6237 105.952 47.8607 105.879 48.0703C105.806 48.2708 105.729 48.485 105.646 48.7129L99.8906 63H97.6484L91.8789 48.8359C91.7969 48.6354 91.7148 48.4303 91.6328 48.2207C91.5599 48.002 91.4642 47.7148 91.3457 47.3594H91.2637C91.291 47.8971 91.3092 48.4531 91.3184 49.0273C91.3275 49.6016 91.332 50.2259 91.332 50.9004V63H88.2832V43.3945H92.9043L98.0039 56.1367C98.1953 56.6107 98.3503 57.0117 98.4688 57.3398C98.5872 57.6589 98.7057 58.0098 98.8242 58.3926H98.9062C99.0612 57.9551 99.207 57.5586 99.3438 57.2031C99.4805 56.8477 99.6217 56.4785 99.7676 56.0957L104.949 43.3945H109.365V63ZM114.616 46.4434C114.014 46.4434 113.522 46.252 113.139 45.8691C112.766 45.4772 112.579 45.0078 112.579 44.4609C112.579 43.9049 112.766 43.4355 113.139 43.0527C113.522 42.6699 114.014 42.4785 114.616 42.4785C115.226 42.4785 115.719 42.6699 116.092 43.0527C116.475 43.4355 116.667 43.9049 116.667 44.4609C116.667 45.026 116.475 45.5 116.092 45.8828C115.719 46.2565 115.226 46.4434 114.616 46.4434ZM116.202 63H113.016V49H116.202V63ZM131.433 60.3887C130.813 61.373 130.011 62.1113 129.026 62.6035C128.051 63.0866 126.971 63.3281 125.786 63.3281C123.526 63.3281 121.762 62.681 120.495 61.3867C119.237 60.0833 118.609 58.3698 118.609 56.2461C118.609 53.9036 119.278 52.0579 120.618 50.709C121.967 49.3509 123.717 48.6719 125.868 48.6719C127.081 48.6719 128.174 48.9271 129.15 49.4375C130.125 49.9479 130.863 50.709 131.364 51.7207L128.876 52.9785C128.439 52.3496 127.969 51.9076 127.468 51.6523C126.976 51.388 126.401 51.2559 125.745 51.2559C124.615 51.2559 123.681 51.6751 122.942 52.5137C122.213 53.3522 121.849 54.5234 121.849 56.0273C121.849 57.513 122.209 58.6615 122.929 59.4727C123.658 60.2839 124.633 60.6895 125.855 60.6895C126.474 60.6895 127.044 60.5618 127.564 60.3066C128.092 60.0423 128.566 59.6003 128.985 58.9805L131.433 60.3887ZM141.728 51.8574C141.473 51.7572 141.209 51.6797 140.935 51.625C140.671 51.5612 140.388 51.5293 140.088 51.5293C139.149 51.5293 138.388 51.9486 137.804 52.7871C137.221 53.6257 136.929 54.7194 136.929 56.0684V63H133.744V49H136.929V51.5293H136.984C137.312 50.6361 137.795 49.9525 138.433 49.4785C139.071 48.9954 139.81 48.7539 140.648 48.7539C141.004 48.7539 141.332 48.7812 141.632 48.8359C141.933 48.8906 142.257 48.9954 142.603 49.1504L141.728 51.8574ZM150.342 63.3281C148.127 63.3281 146.368 62.6764 145.065 61.373C143.761 60.0697 143.11 58.3151 143.11 56.1094C143.119 53.8763 143.811 52.0807 145.188 50.7227C146.564 49.3555 148.35 48.6719 150.547 48.6719C152.753 48.6719 154.494 49.3418 155.77 50.6816C157.046 52.0215 157.684 53.7533 157.684 55.877C157.684 58.0462 157.009 59.8327 155.66 61.2363C154.321 62.6309 152.548 63.3281 150.342 63.3281ZM150.465 60.7441C151.723 60.7441 152.698 60.3158 153.391 59.459C154.084 58.5931 154.43 57.4264 154.43 55.959C154.43 54.5462 154.079 53.4115 153.377 52.5547C152.684 51.6888 151.714 51.2559 150.465 51.2559C149.216 51.2559 148.218 51.7025 147.471 52.5957C146.724 53.4798 146.35 54.6283 146.35 56.041C146.35 57.5085 146.719 58.6615 147.457 59.5C148.196 60.3294 149.198 60.7441 150.465 60.7441ZM159.202 60.6895L161.171 59.0352C161.663 59.7188 162.196 60.2018 162.77 60.4844C163.345 60.7669 163.992 60.9082 164.712 60.9082C165.414 60.9082 165.979 60.7533 166.407 60.4434C166.835 60.1335 167.05 59.6868 167.05 59.1035C167.05 58.666 166.854 58.2878 166.462 57.9688C166.079 57.6497 165.468 57.4128 164.63 57.2578C162.825 56.9206 161.567 56.3965 160.856 55.6855C160.154 54.9746 159.804 54.0905 159.804 53.0332C159.804 51.7207 160.273 50.668 161.212 49.875C162.151 49.0729 163.345 48.6719 164.794 48.6719C165.805 48.6719 166.735 48.8496 167.583 49.2051C168.44 49.5605 169.119 50.1074 169.62 50.8457L167.679 52.4453C167.287 51.9805 166.858 51.6387 166.393 51.4199C165.929 51.1921 165.382 51.0781 164.753 51.0781C164.096 51.0781 163.577 51.2194 163.194 51.502C162.82 51.7845 162.634 52.181 162.634 52.6914C162.634 53.1471 162.811 53.5072 163.167 53.7715C163.531 54.0358 164.224 54.2637 165.245 54.4551C166.813 54.7285 167.984 55.2207 168.759 55.9316C169.533 56.6426 169.921 57.6087 169.921 58.8301C169.921 60.2337 169.415 61.3366 168.403 62.1387C167.401 62.9316 166.161 63.3281 164.684 63.3281C163.427 63.3281 162.333 63.0957 161.403 62.6309C160.473 62.166 159.74 61.5189 159.202 60.6895ZM178.671 63.3281C176.456 63.3281 174.697 62.6764 173.394 61.373C172.091 60.0697 171.439 58.3151 171.439 56.1094C171.448 53.8763 172.141 52.0807 173.517 50.7227C174.893 49.3555 176.68 48.6719 178.876 48.6719C181.082 48.6719 182.823 49.3418 184.099 50.6816C185.375 52.0215 186.013 53.7533 186.013 55.877C186.013 58.0462 185.339 59.8327 183.99 61.2363C182.65 62.6309 180.877 63.3281 178.671 63.3281ZM178.794 60.7441C180.052 60.7441 181.027 60.3158 181.72 59.459C182.413 58.5931 182.759 57.4264 182.759 55.959C182.759 54.5462 182.408 53.4115 181.706 52.5547C181.014 51.6888 180.043 51.2559 178.794 51.2559C177.546 51.2559 176.548 51.7025 175.8 52.5957C175.053 53.4798 174.679 54.6283 174.679 56.041C174.679 57.5085 175.048 58.6615 175.786 59.5C176.525 60.3294 177.527 60.7441 178.794 60.7441ZM195.967 45.0078C195.73 44.8529 195.484 44.7344 195.228 44.6523C194.982 44.5612 194.709 44.5156 194.408 44.5156C193.807 44.5156 193.346 44.7025 193.027 45.0762C192.717 45.4408 192.562 45.9922 192.562 46.7305V49H195.803V51.4883H192.562V63H189.391V51.4883H187.012V49H189.391V46.7031C189.391 45.2448 189.819 44.0918 190.676 43.2441C191.542 42.3874 192.745 41.959 194.285 41.959C194.805 41.959 195.31 42.0228 195.803 42.1504C196.304 42.2689 196.792 42.4557 197.266 42.7109L195.967 45.0078ZM205.674 62.0566C205.255 62.4577 204.767 62.7676 204.211 62.9863C203.655 63.2051 203.031 63.3145 202.338 63.3145C201.008 63.3145 200 62.9818 199.317 62.3164C198.642 61.6419 198.305 60.6576 198.305 59.3633V51.4883H195.954V49H198.305V45.5684L201.477 45.0078V49H205.045V51.4883H201.477V59.2539C201.477 59.8099 201.586 60.2201 201.805 60.4844C202.033 60.7487 202.375 60.8809 202.831 60.8809C203.068 60.8809 203.3 60.8353 203.528 60.7441C203.756 60.653 203.997 60.4753 204.252 60.2109L205.674 62.0566Z" fill="white"/>
<path d="M98.4902 32.8477C97.7936 33.2904 97.0319 33.6322 96.2051 33.873C95.3783 34.1139 94.5059 34.2344 93.5879 34.2344C91.5436 34.2344 89.9128 33.6061 88.6953 32.3496C87.4844 31.0931 86.8789 29.3711 86.8789 27.1836C86.8789 24.931 87.5299 23.1309 88.832 21.7832C90.1341 20.4355 91.8301 19.7617 93.9199 19.7617C94.8639 19.7617 95.707 19.9049 96.4492 20.1914C97.1979 20.4779 97.875 20.901 98.4805 21.4609L97.5234 22.5352C97.0286 22.1055 96.485 21.7865 95.8926 21.5781C95.3066 21.3633 94.6458 21.2559 93.9102 21.2559C92.3477 21.2559 91.0716 21.7734 90.082 22.8086C89.0924 23.8438 88.5977 25.263 88.5977 27.0664C88.5977 28.8958 89.0534 30.3021 89.9648 31.2852C90.8763 32.2617 92.1328 32.75 93.7344 32.75C94.3268 32.75 94.8867 32.6849 95.4141 32.5547C95.9479 32.418 96.4264 32.2161 96.8496 31.9492V28.209H93.6758V26.7246H98.4902V32.8477ZM109.545 29.332H102.426C102.439 30.4974 102.732 31.3796 103.305 31.9785C103.884 32.571 104.649 32.8672 105.6 32.8672C106.107 32.8672 106.589 32.7728 107.045 32.584C107.507 32.3952 107.934 32.1022 108.324 31.7051L109.281 32.6719C108.793 33.1667 108.24 33.5508 107.621 33.8242C107.003 34.0977 106.29 34.2344 105.482 34.2344C104.037 34.2344 102.891 33.7884 102.045 32.8965C101.199 32.0046 100.772 30.7383 100.766 29.0977C100.766 27.5221 101.192 26.2396 102.045 25.25C102.904 24.2604 104.014 23.7656 105.375 23.7656C106.697 23.7656 107.722 24.1855 108.451 25.0254C109.18 25.8652 109.545 27.0306 109.545 28.5215V29.332ZM107.904 28.0137C107.904 27.1087 107.676 26.4023 107.221 25.8945C106.765 25.3802 106.14 25.123 105.346 25.123C104.564 25.123 103.91 25.39 103.383 25.9238C102.862 26.4577 102.546 27.1543 102.436 28.0137H107.904ZM116.83 33.6875C116.55 33.8698 116.26 34.0033 115.961 34.0879C115.661 34.1725 115.32 34.2148 114.936 34.2148C114.148 34.2148 113.529 33.987 113.08 33.5312C112.637 33.0755 112.416 32.4082 112.416 31.5293V25.3672H110.697V24H112.416V21.5879L114.018 21.1582V24H116.596V25.3672H114.018V31.3633C114.018 31.8971 114.115 32.2845 114.311 32.5254C114.512 32.7663 114.815 32.8867 115.219 32.8867C115.414 32.8867 115.6 32.8574 115.775 32.7988C115.958 32.7402 116.124 32.6523 116.273 32.5352L116.83 33.6875ZM124.838 21.6562C124.506 21.6562 124.229 21.5456 124.008 21.3242C123.793 21.1029 123.686 20.8327 123.686 20.5137C123.686 20.1947 123.793 19.9245 124.008 19.7031C124.229 19.4818 124.506 19.3711 124.838 19.3711C125.176 19.3711 125.453 19.4818 125.668 19.7031C125.889 19.9245 126 20.1947 126 20.5137C126 20.8327 125.889 21.1029 125.668 21.3242C125.453 21.5456 125.176 21.6562 124.838 21.6562ZM125.619 34H124.018V24H125.619V34ZM133.725 33.6875C133.445 33.8698 133.155 34.0033 132.855 34.0879C132.556 34.1725 132.214 34.2148 131.83 34.2148C131.042 34.2148 130.424 33.987 129.975 33.5312C129.532 33.0755 129.311 32.4082 129.311 31.5293V25.3672H127.592V24H129.311V21.5879L130.912 21.1582V24H133.49V25.3672H130.912V31.3633C130.912 31.8971 131.01 32.2845 131.205 32.5254C131.407 32.7663 131.71 32.8867 132.113 32.8867C132.309 32.8867 132.494 32.8574 132.67 32.7988C132.852 32.7402 133.018 32.6523 133.168 32.5352L133.725 33.6875ZM145.707 20.5527C145.538 20.4876 145.375 20.4355 145.219 20.3965C145.062 20.3574 144.89 20.3379 144.701 20.3379C144.167 20.3379 143.767 20.4876 143.5 20.7871C143.233 21.0801 143.1 21.5163 143.1 22.0957V24H145.443V25.3672H143.1V34H141.508V25.3672H139.799V24H141.508V22.0176C141.508 21.0866 141.798 20.3477 142.377 19.8008C142.956 19.2539 143.741 18.9805 144.73 18.9805C145.004 18.9805 145.261 19.0065 145.502 19.0586C145.743 19.1042 145.98 19.179 146.215 19.2832L145.707 20.5527ZM152.152 25.416C152.016 25.3639 151.882 25.3249 151.752 25.2988C151.628 25.2728 151.479 25.2598 151.303 25.2598C150.528 25.2598 149.91 25.6048 149.447 26.2949C148.985 26.985 148.754 27.8542 148.754 28.9023V34H147.152V24H148.754V25.9238H148.793C149.021 25.2533 149.369 24.7357 149.838 24.3711C150.307 24.0065 150.84 23.8242 151.439 23.8242C151.667 23.8242 151.866 23.8405 152.035 23.873C152.204 23.8991 152.374 23.9479 152.543 24.0195L152.152 25.416ZM158.441 34.2344C156.938 34.2344 155.743 33.7689 154.857 32.8379C153.979 31.9069 153.539 30.6667 153.539 29.1172C153.539 27.4701 154.008 26.168 154.945 25.2109C155.883 24.2539 157.117 23.7721 158.646 23.7656C160.144 23.7591 161.316 24.2246 162.162 25.1621C163.015 26.0996 163.441 27.3659 163.441 28.9609C163.441 30.5234 162.989 31.793 162.084 32.7695C161.186 33.7461 159.971 34.2344 158.441 34.2344ZM158.549 32.877C159.577 32.877 160.375 32.5417 160.941 31.8711C161.514 31.194 161.801 30.2435 161.801 29.0195C161.801 27.8021 161.514 26.8516 160.941 26.168C160.368 25.4779 159.571 25.1328 158.549 25.1328C157.527 25.1328 156.71 25.4876 156.098 26.1973C155.486 26.9069 155.18 27.8607 155.18 29.0586C155.18 30.2565 155.489 31.194 156.107 31.8711C156.726 32.5417 157.54 32.877 158.549 32.877ZM180.141 34H178.539V28.2578C178.539 27.1576 178.367 26.36 178.021 25.8652C177.683 25.3704 177.11 25.123 176.303 25.123C175.619 25.123 175.036 25.4355 174.555 26.0605C174.079 26.6855 173.842 27.431 173.842 28.2969V34H172.24V28.0625C172.24 27.0859 172.051 26.3535 171.674 25.8652C171.296 25.3704 170.727 25.123 169.965 25.123C169.262 25.123 168.682 25.4193 168.227 26.0117C167.771 26.5977 167.543 27.3594 167.543 28.2969V34H165.941V24H167.543V25.5234H167.582C167.94 24.9375 168.376 24.498 168.891 24.2051C169.411 23.9121 170.01 23.7656 170.688 23.7656C171.365 23.7656 171.954 23.9512 172.455 24.3223C172.963 24.6934 173.311 25.1784 173.5 25.7773C173.871 25.1068 174.337 24.6055 174.896 24.2734C175.456 23.9349 176.104 23.7656 176.84 23.7656C177.94 23.7656 178.764 24.1042 179.311 24.7812C179.864 25.4583 180.141 26.4772 180.141 27.8379V34Z" fill="white"/>
<path d="M24.5095 20.0869C24.5095 19.5346 24.9572 19.0869 25.5095 19.0869H44.7452C45.2975 19.0869 45.7452 19.5346 45.7452 20.0869V38.9565C45.7452 39.5088 45.2975 39.9565 44.7452 39.9565H25.5095C24.9572 39.9565 24.5095 39.5088 24.5095 38.9565V20.0869Z" fill="white"/>
<path d="M47.8688 20.0869C47.8688 19.5346 48.3165 19.0869 48.8688 19.0869H68.1045C68.6568 19.0869 69.1045 19.5346 69.1045 20.0869V38.9565C69.1045 39.5088 68.6568 39.9565 68.1045 39.9565H48.8688C48.3165 39.9565 47.8688 39.5088 47.8688 38.9565V20.0869Z" fill="white"/>
<path d="M24.5095 43.0435C24.5095 42.4912 24.9572 42.0435 25.5095 42.0435H44.7452C45.2975 42.0435 45.7452 42.4912 45.7452 43.0435V61.913C45.7452 62.4653 45.2975 62.913 44.7452 62.913H25.5095C24.9572 62.913 24.5095 62.4653 24.5095 61.913V43.0435Z" fill="white"/>
<path d="M47.8688 43.0435C47.8688 42.4912 48.3165 42.0435 48.8688 42.0435H68.1045C68.6568 42.0435 69.1045 42.4912 69.1045 43.0435V61.913C69.1045 62.4653 68.6568 62.913 68.1045 62.913H48.8688C48.3165 62.913 47.8688 62.4653 47.8688 61.913V43.0435Z" fill="white"/>
<defs>
<linearGradient id="paint0_linear_1772_1953" x1="116" y1="0" x2="116" y2="83" gradientUnits="userSpaceOnUse">
<stop stop-color="#504E98"/>
<stop offset="1" stop-color="#18175E"/>
</linearGradient>
<linearGradient id="paint1_linear_1772_1953" x1="116" y1="0" x2="116" y2="83" gradientUnits="userSpaceOnUse">
<stop stop-color="#615FAD"/>
<stop offset="1" stop-color="#040355"/>
</linearGradient>
</defs>
</svg>
