<svg width="255" height="83" viewBox="0 0 255 83" fill="none" xmlns="http://www.w3.org/2000/svg">
<rect x="1" y="1" width="253" height="81" rx="40.5" fill="url(#paint0_linear_1771_2050)" stroke="url(#paint1_linear_1771_2050)" stroke-width="2"/>
<path d="M98.4902 32.8477C97.7936 33.2904 97.0319 33.6322 96.2051 33.873C95.3783 34.1139 94.5059 34.2344 93.5879 34.2344C91.5436 34.2344 89.9128 33.6061 88.6953 32.3496C87.4844 31.0931 86.8789 29.3711 86.8789 27.1836C86.8789 24.931 87.5299 23.1309 88.832 21.7832C90.1341 20.4355 91.8301 19.7617 93.9199 19.7617C94.8639 19.7617 95.707 19.9049 96.4492 20.1914C97.1979 20.4779 97.875 20.901 98.4805 21.4609L97.5234 22.5352C97.0286 22.1055 96.485 21.7865 95.8926 21.5781C95.3066 21.3633 94.6458 21.2559 93.9102 21.2559C92.3477 21.2559 91.0716 21.7734 90.082 22.8086C89.0924 23.8438 88.5977 25.263 88.5977 27.0664C88.5977 28.8958 89.0534 30.3021 89.9648 31.2852C90.8763 32.2617 92.1328 32.75 93.7344 32.75C94.3268 32.75 94.8867 32.6849 95.4141 32.5547C95.9479 32.418 96.4264 32.2161 96.8496 31.9492V28.209H93.6758V26.7246H98.4902V32.8477ZM109.545 29.332H102.426C102.439 30.4974 102.732 31.3796 103.305 31.9785C103.884 32.571 104.649 32.8672 105.6 32.8672C106.107 32.8672 106.589 32.7728 107.045 32.584C107.507 32.3952 107.934 32.1022 108.324 31.7051L109.281 32.6719C108.793 33.1667 108.24 33.5508 107.621 33.8242C107.003 34.0977 106.29 34.2344 105.482 34.2344C104.037 34.2344 102.891 33.7884 102.045 32.8965C101.199 32.0046 100.772 30.7383 100.766 29.0977C100.766 27.5221 101.192 26.2396 102.045 25.25C102.904 24.2604 104.014 23.7656 105.375 23.7656C106.697 23.7656 107.722 24.1855 108.451 25.0254C109.18 25.8652 109.545 27.0306 109.545 28.5215V29.332ZM107.904 28.0137C107.904 27.1087 107.676 26.4023 107.221 25.8945C106.765 25.3802 106.14 25.123 105.346 25.123C104.564 25.123 103.91 25.39 103.383 25.9238C102.862 26.4577 102.546 27.1543 102.436 28.0137H107.904ZM116.83 33.6875C116.55 33.8698 116.26 34.0033 115.961 34.0879C115.661 34.1725 115.32 34.2148 114.936 34.2148C114.148 34.2148 113.529 33.987 113.08 33.5312C112.637 33.0755 112.416 32.4082 112.416 31.5293V25.3672H110.697V24H112.416V21.5879L114.018 21.1582V24H116.596V25.3672H114.018V31.3633C114.018 31.8971 114.115 32.2845 114.311 32.5254C114.512 32.7663 114.815 32.8867 115.219 32.8867C115.414 32.8867 115.6 32.8574 115.775 32.7988C115.958 32.7402 116.124 32.6523 116.273 32.5352L116.83 33.6875ZM124.838 21.6562C124.506 21.6562 124.229 21.5456 124.008 21.3242C123.793 21.1029 123.686 20.8327 123.686 20.5137C123.686 20.1947 123.793 19.9245 124.008 19.7031C124.229 19.4818 124.506 19.3711 124.838 19.3711C125.176 19.3711 125.453 19.4818 125.668 19.7031C125.889 19.9245 126 20.1947 126 20.5137C126 20.8327 125.889 21.1029 125.668 21.3242C125.453 21.5456 125.176 21.6562 124.838 21.6562ZM125.619 34H124.018V24H125.619V34ZM133.725 33.6875C133.445 33.8698 133.155 34.0033 132.855 34.0879C132.556 34.1725 132.214 34.2148 131.83 34.2148C131.042 34.2148 130.424 33.987 129.975 33.5312C129.532 33.0755 129.311 32.4082 129.311 31.5293V25.3672H127.592V24H129.311V21.5879L130.912 21.1582V24H133.49V25.3672H130.912V31.3633C130.912 31.8971 131.01 32.2845 131.205 32.5254C131.407 32.7663 131.71 32.8867 132.113 32.8867C132.309 32.8867 132.494 32.8574 132.67 32.7988C132.852 32.7402 133.018 32.6523 133.168 32.5352L133.725 33.6875ZM145.121 34.2344C143.617 34.2344 142.423 33.7689 141.537 32.8379C140.658 31.9069 140.219 30.6667 140.219 29.1172C140.219 27.4701 140.688 26.168 141.625 25.2109C142.562 24.2539 143.796 23.7721 145.326 23.7656C146.824 23.7591 147.995 24.2246 148.842 25.1621C149.695 26.0996 150.121 27.3659 150.121 28.9609C150.121 30.5234 149.669 31.793 148.764 32.7695C147.865 33.7461 146.651 34.2344 145.121 34.2344ZM145.229 32.877C146.257 32.877 147.055 32.5417 147.621 31.8711C148.194 31.194 148.48 30.2435 148.48 29.0195C148.48 27.8021 148.194 26.8516 147.621 26.168C147.048 25.4779 146.251 25.1328 145.229 25.1328C144.206 25.1328 143.389 25.4876 142.777 26.1973C142.165 26.9069 141.859 27.8607 141.859 29.0586C141.859 30.2565 142.169 31.194 142.787 31.8711C143.406 32.5417 144.219 32.877 145.229 32.877ZM160.922 34H159.32V28.209C159.32 27.1803 159.128 26.4089 158.744 25.8945C158.367 25.3802 157.794 25.123 157.025 25.123C156.205 25.123 155.531 25.4258 155.004 26.0312C154.483 26.6302 154.223 27.3854 154.223 28.2969V34H152.621V24H154.223V25.5723H154.262C154.639 24.9733 155.102 24.5241 155.648 24.2246C156.195 23.9186 156.827 23.7656 157.543 23.7656C158.637 23.7656 159.473 24.1204 160.053 24.8301C160.632 25.5332 160.922 26.5521 160.922 27.8867V34Z" fill="white"/>
<path d="M218.731 49.6214L215.395 57.9858H215.295L211.814 49.6214H208.667L213.882 61.3141L210.902 67.8174H213.96L222 49.6214H218.731ZM195.156 42.6801H192.242V61.971H195.156V42.6801ZM184.191 42.6801H177.186V61.971H180.121V54.6685H184.202C185.025 54.6962 185.845 54.5628 186.615 54.2758C187.385 53.9889 188.09 53.5543 188.688 52.9971C189.286 52.44 189.765 51.7714 190.099 51.0303C190.432 50.2891 190.613 49.4902 190.63 48.6798C190.613 47.868 190.432 47.0676 190.098 46.3251C189.764 45.5827 189.284 44.9129 188.685 44.3547C188.086 43.7966 187.38 43.3611 186.609 43.0736C185.837 42.7862 185.016 42.6524 184.191 42.6801ZM184.269 51.9752H180.121V45.4063H184.28C185.165 45.4063 186.014 45.7523 186.639 46.3683C187.265 46.9842 187.616 47.8196 187.616 48.6907C187.616 49.5618 187.265 50.3973 186.639 51.0132C186.014 51.6292 185.165 51.9752 184.28 51.9752H184.269ZM202.339 49.2053C201.272 49.145 200.21 49.3926 199.284 49.9177C198.358 50.4427 197.607 51.2225 197.124 52.1614L199.726 53.2562C199.984 52.792 200.374 52.4121 200.848 52.1631C201.322 51.9142 201.86 51.807 202.395 51.8548C202.763 51.8186 203.134 51.8542 203.487 51.9596C203.841 52.065 204.169 52.2382 204.454 52.4692C204.74 52.7001 204.976 52.9843 205.149 53.3054C205.322 53.6265 205.429 53.9781 205.464 54.3401V54.5371C204.532 54.0406 203.488 53.781 202.428 53.7817C199.637 53.7817 196.791 55.2926 196.791 58.161C196.791 60.7448 199.07 62.4089 201.65 62.4089C202.384 62.4548 203.117 62.3039 203.771 61.9724C204.425 61.6408 204.976 61.1409 205.364 60.5258H205.475V62.0148H208.322V54.5919C208.322 51.1651 205.72 49.2601 202.362 49.2601L202.339 49.2053ZM201.995 59.7813C201.038 59.7813 199.704 59.2996 199.704 58.1391C199.704 56.6501 201.361 56.0808 202.807 56.0808C203.739 56.0563 204.661 56.2794 205.475 56.7268C205.368 57.564 204.956 58.3346 204.316 58.8962C203.677 59.4577 202.852 59.7721 201.995 59.7813ZM96.5531 62.387C93.786 62.396 91.1267 61.3312 89.1514 59.4234C87.1761 57.5155 86.0439 54.9182 86 52.1942C86.0439 49.4702 87.1761 46.8729 89.1514 44.965C91.1267 43.0572 93.786 41.9924 96.5531 42.0014C97.8716 41.9797 99.1812 42.2175 100.405 42.7006C101.629 43.1838 102.743 43.9026 103.681 44.8151L101.668 46.7748C100.303 45.4578 98.4644 44.7258 96.5531 44.7384C94.5564 44.7384 92.6415 45.5193 91.2297 46.9093C89.8179 48.2994 89.0247 50.1846 89.0247 52.1504C89.0247 54.1162 89.8179 56.0014 91.2297 57.3915C92.6415 58.7815 94.5564 59.5624 96.5531 59.5624C97.5247 59.6017 98.494 59.4397 99.3981 59.0871C100.302 58.7344 101.121 58.1989 101.802 57.5151C102.707 56.5544 103.252 55.3185 103.348 54.0116H96.5531V51.3074H106.116C106.221 51.8818 106.269 52.4647 106.261 53.0482C106.357 55.4717 105.473 57.834 103.803 59.6171C102.861 60.5548 101.728 61.2861 100.478 61.7634C99.229 62.2407 97.8915 62.4532 96.5531 62.387ZM121.051 55.8181C121.087 56.6938 120.944 57.5678 120.628 58.3875C120.313 59.2072 119.833 59.9557 119.217 60.5881C118.6 61.2204 117.86 61.7235 117.041 62.0672C116.222 62.411 115.341 62.5881 114.451 62.5881C113.561 62.5881 112.68 62.411 111.861 62.0672C111.042 61.7235 110.302 61.2204 109.685 60.5881C109.069 59.9557 108.589 59.2072 108.274 58.3875C107.958 57.5678 107.815 56.6938 107.851 55.8181C107.815 54.9423 107.958 54.0684 108.274 53.2487C108.589 52.429 109.069 51.6804 109.685 51.0481C110.302 50.4157 111.042 49.9126 111.861 49.5689C112.68 49.2252 113.561 49.048 114.451 49.048C115.341 49.048 116.222 49.2252 117.041 49.5689C117.86 49.9126 118.6 50.4157 119.217 51.0481C119.833 51.6804 120.313 52.429 120.628 53.2487C120.944 54.0684 121.087 54.9423 121.051 55.8181ZM118.16 55.8181C118.209 55.3095 118.149 54.7964 117.985 54.3117C117.821 53.8271 117.556 53.3815 117.207 53.0036C116.858 52.6256 116.432 52.3237 115.958 52.1171C115.483 51.9104 114.97 51.8037 114.451 51.8037C113.932 51.8037 113.419 51.9104 112.944 52.1171C112.47 52.3237 112.044 52.6256 111.695 53.0036C111.346 53.3815 111.081 53.8271 110.917 54.3117C110.753 54.7964 110.693 55.3095 110.742 55.8181C110.693 56.3267 110.753 56.8397 110.917 57.3244C111.081 57.8091 111.346 58.2547 111.695 58.6326C112.044 59.0105 112.47 59.3125 112.944 59.5191C113.419 59.7257 113.932 59.8324 114.451 59.8324C114.97 59.8324 115.483 59.7257 115.958 59.5191C116.432 59.3125 116.858 59.0105 117.207 58.6326C117.556 58.2547 117.821 57.8091 117.985 57.3244C118.149 56.8397 118.209 56.3267 118.16 55.8181ZM135.841 55.8181C135.841 57.5399 135.146 59.1913 133.909 60.4088C132.673 61.6264 130.995 62.3104 129.246 62.3104C127.498 62.3104 125.82 61.6264 124.584 60.4088C123.347 59.1913 122.652 57.5399 122.652 55.8181C122.652 54.0962 123.347 52.4449 124.584 51.2273C125.82 50.0098 127.498 49.3257 129.246 49.3257C130.995 49.3257 132.673 50.0098 133.909 51.2273C135.146 52.4449 135.841 54.0962 135.841 55.8181ZM132.961 55.8181C133.01 55.3095 132.95 54.7964 132.786 54.3117C132.622 53.8271 132.357 53.3815 132.008 53.0036C131.659 52.6256 131.233 52.3237 130.759 52.1171C130.284 51.9104 129.771 51.8037 129.252 51.8037C128.733 51.8037 128.22 51.9104 127.745 52.1171C127.271 52.3237 126.845 52.6256 126.496 53.0036C126.147 53.3815 125.882 53.8271 125.718 54.3117C125.554 54.7964 125.494 55.3095 125.543 55.8181C125.494 56.3267 125.554 56.8397 125.718 57.3244C125.882 57.8091 126.147 58.2547 126.496 58.6326C126.845 59.0105 127.271 59.3125 127.745 59.5191C128.22 59.7257 128.733 59.8324 129.252 59.8324C129.771 59.8324 130.284 59.7257 130.759 59.5191C131.233 59.3125 131.659 59.0105 132.008 58.6326C132.357 58.2547 132.622 57.8091 132.786 57.3244C132.95 56.8397 133.01 56.3267 132.961 55.8181ZM150.275 49.6542V61.4455C150.275 66.2846 147.35 68.2772 143.903 68.2772C142.639 68.2877 141.401 67.9293 140.344 67.2473C139.287 66.5653 138.459 65.5903 137.965 64.4453L140.489 63.3505C140.751 64.0189 141.207 64.5965 141.8 65.0113C142.393 65.426 143.098 65.6595 143.825 65.6825C146.049 65.6825 147.406 64.3358 147.406 61.8287V60.8871H147.295C146.858 61.3663 146.323 61.7481 145.725 62.0068C145.126 62.2655 144.479 62.3951 143.825 62.387C142.055 62.387 140.358 61.695 139.107 60.463C137.856 59.2311 137.153 57.5603 137.153 55.8181C137.153 54.0759 137.856 52.405 139.107 51.1731C140.358 49.9412 142.055 49.2491 143.825 49.2491C144.483 49.2348 145.136 49.3583 145.742 49.6112C146.348 49.8641 146.892 50.2407 147.339 50.7162H147.45V49.6214H150.275V49.6542ZM147.684 55.8509C147.725 55.3554 147.664 54.8569 147.505 54.3849C147.347 53.913 147.093 53.4772 146.76 53.1035C146.428 52.7297 146.022 52.4256 145.567 52.2093C145.113 51.9929 144.618 51.8686 144.114 51.8439C143.6 51.8606 143.094 51.9782 142.627 52.1896C142.159 52.401 141.739 52.7021 141.392 53.0752C141.044 53.4483 140.775 53.8859 140.601 54.3625C140.427 54.8391 140.351 55.3451 140.378 55.8509C140.354 56.3533 140.432 56.8553 140.608 57.3275C140.784 57.7997 141.054 58.2325 141.402 58.6007C141.75 58.9688 142.169 59.2648 142.635 59.4713C143.101 59.6778 143.603 59.7907 144.114 59.8032C144.615 59.7841 145.108 59.6655 145.561 59.4545C146.015 59.2436 146.42 58.9446 146.754 58.5755C147.087 58.2064 147.341 57.7748 147.501 57.3066C147.661 56.8384 147.723 56.3433 147.684 55.8509ZM155.423 42.702V61.982H152.488V42.702H155.423ZM166.988 57.9858L169.279 59.4748C168.668 60.3734 167.84 61.1094 166.87 61.6175C165.9 62.1255 164.818 62.3898 163.719 62.387C162.845 62.3994 161.978 62.2369 161.169 61.9096C160.361 61.5823 159.628 61.0969 159.016 60.4828C158.404 59.8687 157.924 59.1387 157.607 58.3368C157.289 57.535 157.141 56.6782 157.169 55.8181C157.039 54.3394 157.466 52.8653 158.369 51.6768C159.272 50.4882 160.587 49.6683 162.065 49.3733C163.542 49.0784 165.078 49.329 166.38 50.0774C167.682 50.8257 168.658 52.0196 169.123 53.4314L169.424 54.1868L160.528 57.8107C160.805 58.4241 161.262 58.9418 161.841 59.2969C162.42 59.652 163.093 59.8284 163.775 59.8032C164.423 59.7932 165.058 59.6212 165.62 59.3033C166.182 58.9854 166.653 58.5321 166.988 57.9858ZM159.972 55.621L165.954 53.1905C165.723 52.7443 165.363 52.3747 164.92 52.1276C164.478 51.8805 163.971 51.7666 163.463 51.8001C162.978 51.821 162.501 51.9369 162.062 52.1411C161.622 52.3453 161.228 52.6337 160.903 52.9894C160.578 53.3451 160.328 53.7611 160.168 54.2129C160.008 54.6647 159.942 55.1434 159.972 55.621Z" fill="white"/>
<g clip-path="url(#clip0_1771_2050)">
<path d="M44.4846 40.3604L23.1904 62.7755C23.4349 63.6233 23.8676 64.4043 24.456 65.0597C25.0444 65.7152 25.7731 66.228 26.5873 66.5595C27.4015 66.891 28.28 67.0326 29.1565 66.9736C30.0331 66.9147 30.8849 66.6567 31.6478 66.2191L55.6078 52.5085L44.4846 40.3604Z" fill="#EB3131"/>
<path d="M66.0169 36.5499L55.6554 30.5874L43.9928 40.8703L55.5 52.5L65.9852 46.5777C66.6419 46.2348 67.2247 45.7648 67.7 45.1949C68.1754 44.6249 68.534 43.9662 68.7552 43.2566C68.9764 42.547 69.0558 41.8004 68.9889 41.0598C68.922 40.3193 68.71 39.5993 68.3653 38.9413C67.8274 37.9232 66.9984 37.0903 65.9852 36.5499H66.0169Z" fill="#F6B60B"/>
<path d="M23.1904 20.2407C23.0637 20.7192 22.9997 21.2123 23 21.7074V61.3086C22.9997 61.8037 23.0637 62.2968 23.1904 62.7753L45.2146 40.9341L23.1904 20.2407Z" fill="#5778C5"/>
<path d="M44.6433 41.508L55.6554 30.5874L31.7271 16.8131C30.8267 16.2841 29.803 16.0036 28.7599 16C27.5 15.9975 26.2738 16.409 25.2683 17.1717C24.2628 17.9345 23.5331 19.0066 23.1904 20.2248L44.6433 41.508Z" fill="#3BAD49"/>
</g>
<defs>
<linearGradient id="paint0_linear_1771_2050" x1="127.5" y1="-3.87585e-06" x2="126.994" y2="76.4966" gradientUnits="userSpaceOnUse">
<stop stop-color="#44D86C"/>
<stop offset="1" stop-color="#2F8E48"/>
</linearGradient>
<linearGradient id="paint1_linear_1771_2050" x1="127.5" y1="0" x2="127.5" y2="83" gradientUnits="userSpaceOnUse">
<stop stop-color="#61E485"/>
<stop offset="1" stop-color="#358049"/>
</linearGradient>
<clipPath id="clip0_1771_2050">
<rect width="46" height="51" fill="white" transform="translate(23 16)"/>
</clipPath>
</defs>
</svg>
