<svg width="228" height="83" viewBox="0 0 228 83" fill="none" xmlns="http://www.w3.org/2000/svg">
<rect x="1" y="1" width="213" height="81" rx="40.5" fill="url(#paint0_linear_1772_1952)" stroke="url(#paint1_linear_1772_1952)" stroke-width="2"/>
<path d="M98.4902 32.8477C97.7936 33.2904 97.0319 33.6322 96.2051 33.873C95.3783 34.1139 94.5059 34.2344 93.5879 34.2344C91.5436 34.2344 89.9128 33.6061 88.6953 32.3496C87.4844 31.0931 86.8789 29.3711 86.8789 27.1836C86.8789 24.931 87.5299 23.1309 88.832 21.7832C90.1341 20.4355 91.8301 19.7617 93.9199 19.7617C94.8639 19.7617 95.707 19.9049 96.4492 20.1914C97.1979 20.4779 97.875 20.901 98.4805 21.4609L97.5234 22.5352C97.0286 22.1055 96.485 21.7865 95.8926 21.5781C95.3066 21.3633 94.6458 21.2559 93.9102 21.2559C92.3477 21.2559 91.0716 21.7734 90.082 22.8086C89.0924 23.8438 88.5977 25.263 88.5977 27.0664C88.5977 28.8958 89.0534 30.3021 89.9648 31.2852C90.8763 32.2617 92.1328 32.75 93.7344 32.75C94.3268 32.75 94.8867 32.6849 95.4141 32.5547C95.9479 32.418 96.4264 32.2161 96.8496 31.9492V28.209H93.6758V26.7246H98.4902V32.8477ZM109.545 29.332H102.426C102.439 30.4974 102.732 31.3796 103.305 31.9785C103.884 32.571 104.649 32.8672 105.6 32.8672C106.107 32.8672 106.589 32.7728 107.045 32.584C107.507 32.3952 107.934 32.1022 108.324 31.7051L109.281 32.6719C108.793 33.1667 108.24 33.5508 107.621 33.8242C107.003 34.0977 106.29 34.2344 105.482 34.2344C104.037 34.2344 102.891 33.7884 102.045 32.8965C101.199 32.0046 100.772 30.7383 100.766 29.0977C100.766 27.5221 101.192 26.2396 102.045 25.25C102.904 24.2604 104.014 23.7656 105.375 23.7656C106.697 23.7656 107.722 24.1855 108.451 25.0254C109.18 25.8652 109.545 27.0306 109.545 28.5215V29.332ZM107.904 28.0137C107.904 27.1087 107.676 26.4023 107.221 25.8945C106.765 25.3802 106.14 25.123 105.346 25.123C104.564 25.123 103.91 25.39 103.383 25.9238C102.862 26.4577 102.546 27.1543 102.436 28.0137H107.904ZM116.83 33.6875C116.55 33.8698 116.26 34.0033 115.961 34.0879C115.661 34.1725 115.32 34.2148 114.936 34.2148C114.148 34.2148 113.529 33.987 113.08 33.5312C112.637 33.0755 112.416 32.4082 112.416 31.5293V25.3672H110.697V24H112.416V21.5879L114.018 21.1582V24H116.596V25.3672H114.018V31.3633C114.018 31.8971 114.115 32.2845 114.311 32.5254C114.512 32.7663 114.815 32.8867 115.219 32.8867C115.414 32.8867 115.6 32.8574 115.775 32.7988C115.958 32.7402 116.124 32.6523 116.273 32.5352L116.83 33.6875ZM124.838 21.6562C124.506 21.6562 124.229 21.5456 124.008 21.3242C123.793 21.1029 123.686 20.8327 123.686 20.5137C123.686 20.1947 123.793 19.9245 124.008 19.7031C124.229 19.4818 124.506 19.3711 124.838 19.3711C125.176 19.3711 125.453 19.4818 125.668 19.7031C125.889 19.9245 126 20.1947 126 20.5137C126 20.8327 125.889 21.1029 125.668 21.3242C125.453 21.5456 125.176 21.6562 124.838 21.6562ZM125.619 34H124.018V24H125.619V34ZM133.725 33.6875C133.445 33.8698 133.155 34.0033 132.855 34.0879C132.556 34.1725 132.214 34.2148 131.83 34.2148C131.042 34.2148 130.424 33.987 129.975 33.5312C129.532 33.0755 129.311 32.4082 129.311 31.5293V25.3672H127.592V24H129.311V21.5879L130.912 21.1582V24H133.49V25.3672H130.912V31.3633C130.912 31.8971 131.01 32.2845 131.205 32.5254C131.407 32.7663 131.71 32.8867 132.113 32.8867C132.309 32.8867 132.494 32.8574 132.67 32.7988C132.852 32.7402 133.018 32.6523 133.168 32.5352L133.725 33.6875ZM145.707 20.5527C145.538 20.4876 145.375 20.4355 145.219 20.3965C145.062 20.3574 144.89 20.3379 144.701 20.3379C144.167 20.3379 143.767 20.4876 143.5 20.7871C143.233 21.0801 143.1 21.5163 143.1 22.0957V24H145.443V25.3672H143.1V34H141.508V25.3672H139.799V24H141.508V22.0176C141.508 21.0866 141.798 20.3477 142.377 19.8008C142.956 19.2539 143.741 18.9805 144.73 18.9805C145.004 18.9805 145.261 19.0065 145.502 19.0586C145.743 19.1042 145.98 19.179 146.215 19.2832L145.707 20.5527ZM152.152 25.416C152.016 25.3639 151.882 25.3249 151.752 25.2988C151.628 25.2728 151.479 25.2598 151.303 25.2598C150.528 25.2598 149.91 25.6048 149.447 26.2949C148.985 26.985 148.754 27.8542 148.754 28.9023V34H147.152V24H148.754V25.9238H148.793C149.021 25.2533 149.369 24.7357 149.838 24.3711C150.307 24.0065 150.84 23.8242 151.439 23.8242C151.667 23.8242 151.866 23.8405 152.035 23.873C152.204 23.8991 152.374 23.9479 152.543 24.0195L152.152 25.416ZM158.441 34.2344C156.938 34.2344 155.743 33.7689 154.857 32.8379C153.979 31.9069 153.539 30.6667 153.539 29.1172C153.539 27.4701 154.008 26.168 154.945 25.2109C155.883 24.2539 157.117 23.7721 158.646 23.7656C160.144 23.7591 161.316 24.2246 162.162 25.1621C163.015 26.0996 163.441 27.3659 163.441 28.9609C163.441 30.5234 162.989 31.793 162.084 32.7695C161.186 33.7461 159.971 34.2344 158.441 34.2344ZM158.549 32.877C159.577 32.877 160.375 32.5417 160.941 31.8711C161.514 31.194 161.801 30.2435 161.801 29.0195C161.801 27.8021 161.514 26.8516 160.941 26.168C160.368 25.4779 159.571 25.1328 158.549 25.1328C157.527 25.1328 156.71 25.4876 156.098 26.1973C155.486 26.9069 155.18 27.8607 155.18 29.0586C155.18 30.2565 155.489 31.194 156.107 31.8711C156.726 32.5417 157.54 32.877 158.549 32.877ZM180.141 34H178.539V28.2578C178.539 27.1576 178.367 26.36 178.021 25.8652C177.683 25.3704 177.11 25.123 176.303 25.123C175.619 25.123 175.036 25.4355 174.555 26.0605C174.079 26.6855 173.842 27.431 173.842 28.2969V34H172.24V28.0625C172.24 27.0859 172.051 26.3535 171.674 25.8652C171.296 25.3704 170.727 25.123 169.965 25.123C169.262 25.123 168.682 25.4193 168.227 26.0117C167.771 26.5977 167.543 27.3594 167.543 28.2969V34H165.941V24H167.543V25.5234H167.582C167.94 24.9375 168.376 24.498 168.891 24.2051C169.411 23.9121 170.01 23.7656 170.688 23.7656C171.365 23.7656 171.954 23.9512 172.455 24.3223C172.963 24.6934 173.311 25.1784 173.5 25.7773C173.871 25.1068 174.337 24.6055 174.896 24.2734C175.456 23.9349 176.104 23.7656 176.84 23.7656C177.94 23.7656 178.764 24.1042 179.311 24.7812C179.864 25.4583 180.141 26.4772 180.141 27.8379V34Z" fill="white"/>
<mask id="mask0_1772_1952" style="mask-type:luminance" maskUnits="userSpaceOnUse" x="86" y="40" width="103" height="26">
<path d="M188.05 40H86V66H188.05V40Z" fill="white"/>
</mask>
<g mask="url(#mask0_1772_1952)">
<path d="M110.566 65.1686V48.1453H115.352V65.1686H110.566ZM124.63 65.1686C121.45 65.1686 120.208 63.8055 120.208 60.9279V52.1436H117.179V48.1453H120.208V44.7527L124.994 43.632V48.1453H128.538V52.1436H124.994V59.8677C124.994 60.8068 125.418 61.1703 126.357 61.1703H128.538V65.1686H124.63ZM157.996 65.4715C154.27 65.4715 152.24 63.4118 152.24 59.6557V48.1453H157.057V58.3835C157.057 60.4736 157.996 61.6246 159.783 61.6246C161.843 61.6246 163.418 59.7163 163.418 57.1113V48.1453H168.234V65.1686H163.418V62.291C162.509 64.1387 160.328 65.4715 157.996 65.4715ZM180.984 65.4715C178.662 65.4715 176.542 64.1387 175.531 62.2304V65.1686H170.745V41.4207H175.561V51.2652C176.542 49.2054 178.753 47.7515 180.984 47.7515C185.629 47.7515 188.083 50.9623 187.92 56.6266C188.083 62.2304 185.538 65.4715 180.984 65.4715ZM179.287 61.4429C181.782 61.4429 183.145 59.5951 182.983 56.6266C183.145 53.6279 181.782 51.7801 179.287 51.7801C177.299 51.7801 175.724 53.7187 175.561 56.3843V56.6569C175.724 59.4134 177.299 61.4429 179.287 61.4429ZM144.734 41.4207V51.0532H135.707V41.4207H130.558V65.1686H135.707V55.6574H144.734V65.1686H149.883V41.4207H144.734ZM97.4499 65.623C90.4224 65.623 86 60.8068 86 53.2644C86 45.722 90.5135 40.9664 97.6619 40.9664C103.478 40.9664 106.992 43.4502 108.112 47.6303L102.902 48.8722C102.266 46.6004 100.449 45.3585 97.6619 45.3585C93.512 45.3585 91.2705 48.0847 91.2705 53.2644C91.2705 58.4441 93.4514 61.2308 97.5407 61.2308C101.297 61.2308 103.538 58.9288 103.538 55.0212V54.1125L104.871 55.9603H97.1168V51.5984H108.748V54.3548C108.748 61.5943 104.538 65.623 97.4499 65.623ZM112.959 46.5399C114.564 46.5399 115.806 45.2979 115.806 43.6925C115.806 42.0871 114.564 40.8452 112.959 40.8452C111.353 40.8452 110.112 42.0871 110.112 43.6925C110.112 45.2979 111.353 46.5399 112.959 46.5399Z" fill="white"/>
</g>
<mask id="mask1_1772_1952" style="mask-type:luminance" maskUnits="userSpaceOnUse" x="15" y="14" width="54" height="53">
<path d="M69 14H15V66.898H69V14Z" fill="white"/>
</mask>
<g mask="url(#mask1_1772_1952)">
<path d="M37.834 52.2324C30.873 51.3887 25.9687 46.3789 25.9687 39.8926C25.9687 37.2559 26.918 34.4082 28.5 32.5098C27.8145 30.7695 27.9199 27.0781 28.7109 25.5488C30.8203 25.2852 33.668 26.3926 35.3555 27.9219C37.3594 27.2891 39.4687 26.9727 42.0527 26.9727C44.6367 26.9727 46.7461 27.2891 48.6445 27.8691C50.2793 26.3926 53.1797 25.2852 55.2891 25.5488C56.0273 26.9727 56.1328 30.6641 55.4473 32.457C57.1348 34.4609 58.0312 37.1504 58.0312 39.8926C58.0312 46.3789 53.127 51.2832 46.0605 52.1797C47.8535 53.3398 49.0664 55.8711 49.0664 58.7715V64.2559C49.0664 65.8379 50.3848 66.7344 51.9668 66.1016C61.5117 62.4629 69 52.918 69 41.1055C69 26.1816 56.8711 14 41.9473 14C27.0234 14 15 26.1816 15 41.1055C15 52.8125 22.4355 62.5156 32.4551 66.1543C33.8789 66.6816 35.25 65.7324 35.25 64.3086V60.0898C34.5117 60.4063 33.5625 60.6172 32.7187 60.6172C29.2383 60.6172 27.1816 58.7188 25.7051 55.1855C25.125 53.7617 24.4922 52.918 23.2793 52.7598C22.6465 52.707 22.4355 52.4434 22.4355 52.127C22.4355 51.4941 23.4902 51.0195 24.5449 51.0195C26.0742 51.0195 27.3926 51.9688 28.7637 53.9199C29.8184 55.4492 30.9258 56.1348 32.2441 56.1348C33.5625 56.1348 34.4062 55.6602 35.6191 54.4473C36.5156 53.5508 37.2012 52.7598 37.834 52.2324Z" fill="white"/>
</g>
<defs>
<linearGradient id="paint0_linear_1772_1952" x1="107.5" y1="0" x2="107.5" y2="83" gradientUnits="userSpaceOnUse">
<stop stop-color="#A24DBC"/>
<stop offset="1" stop-color="#592883"/>
</linearGradient>
<linearGradient id="paint1_linear_1772_1952" x1="107.5" y1="0" x2="107.5" y2="83" gradientUnits="userSpaceOnUse">
<stop stop-color="#B859D5"/>
<stop offset="1" stop-color="#4A0B80"/>
</linearGradient>
</defs>
</svg>
