<!-- Exported by Character Map UWP -->
<svg height="100%" viewBox="75 75 874 874" width="100%" xmlns="http://www.w3.org/2000/svg" xmlns:xlink="http://www.w3.org/1999/xlink">
  <path d="M512,949C572,949 628.333,937.333 681,914C734.333,891.333 780.833,860.167 820.5,820.5C860.167,780.833 891.333,734.333 914,681C937.333,628.333 949,572 949,512C949,452 937.333,395.667 914,343C891.333,289.667 860,243.167 820,203.5C780,163.833 733.667,132.667 681,110C627.667,86.6667 571.333,75.0001 512,75C452,75.0001 395.333,86.6667 342,110C289.333,132.667 243.167,163.833 203.5,203.5C163.833,243.167 132.333,289.667 109,343C86.3333,395.667 75,452 75,512C75,572 86.6667,628.333 110,681C132.667,734.333 163.833,780.833 203.5,820.5C243.167,860.167 289.667,891.333 343,914C395.667,937.333 452,949 512,949ZM512,876C461.333,876 414,866.667 370,848C325.333,828.667 286.667,802.667 254,770C221.333,737.333 195.667,698.667 177,654C157.667,610 148,562.667 148,512C148,461.333 157.333,414 176,370C195.333,326 221.333,287.5 254,254.5C286.667,221.5 325,195.333 369,176C413.667,157.333 461.333,148 512,148C562,148 609.333,157.333 654,176C698,195.333 736.5,221.5 769.5,254.5C802.5,287.5 828.667,326 848,370C866.667,414 876,461.333 876,512C876,562.667 866.667,610 848,654C828.667,698.667 802.667,737.333 770,770C737.333,802.667 698.667,828.667 654,848C610,866.667 562.667,876 512,876ZM371,512C371,496.667 365.167,483.333 353.5,472C341.833,460.667 328.333,455 313,455C297,455 283.333,460.667 272,472C260.667,483.333 255,496.667 255,512C255,528 260.667,541.667 272,553C283.333,564.333 297,570 313,570C328.333,570 341.833,564.333 353.5,553C365.167,541.667 371,528 371,512ZM569,512C569,496.667 563.333,483.333 552,472C540.667,460.667 527.333,455 512,455C496,455 482.333,460.667 471,472C459.667,483.333 454,496.667 454,512C454,528 459.667,541.667 471,553C482.333,564.333 496,570 512,570C527.333,570 540.667,564.333 552,553C563.333,541.667 569,528 569,512ZM768,512C768,496.667 762.333,483.333 751,472C739.667,460.667 726,455 710,455C694.667,455 681.167,460.667 669.5,472C657.833,483.333 652,496.667 652,512C652,528 657.833,541.667 669.5,553C681.167,564.333 694.667,570 710,570C726,570 739.667,564.333 751,553C762.333,541.667 768,528 768,512Z" fill="#007BFF" fill-opacity="1">
  </path>
</svg>