<svg preserveAspectRatio="xMinYMin" width="60" height="60" viewBox="0 0 60 60" fill="none" xmlns="http://www.w3.org/2000/svg">
<rect x="17" y="18" width="26" height="22" fill="white"/>
<path d="M28.9186 5.43439C29.523 4.8552 30.4764 4.8552 31.0808 5.43439C34.5292 8.73908 39.4367 10.5318 43.6274 11.4842C45.7012 11.9555 47.5511 12.2104 48.8805 12.3471C49.5443 12.4153 50.0758 12.4539 50.4376 12.4753C50.6185 12.4859 50.7568 12.4923 50.8477 12.496C50.8932 12.4978 50.9269 12.499 50.9481 12.4997L50.9705 12.5003L50.9738 12.5004C51.8221 12.5205 52.5 13.2139 52.5 14.0625V26.25C52.5 38.121 46.1758 50.0195 30.4658 54.9289C30.1623 55.0237 29.8371 55.0237 29.5337 54.9289C21.7358 52.492 16.199 48.3136 12.6222 43.1561C9.05337 38.0103 7.5 31.9838 7.5 25.9375V14.0626C7.49998 13.2141 8.17711 12.5207 9.02525 12.5004L9.0295 12.5003L9.05193 12.4997C9.07314 12.499 9.10678 12.4978 9.15226 12.496C9.24323 12.4923 9.38149 12.4859 9.56234 12.4753C9.92415 12.4539 10.4557 12.4153 11.1194 12.3471C12.4487 12.2104 14.2986 11.9555 16.3723 11.4842C20.5628 10.5318 25.4702 8.73908 28.9186 5.43439ZM40.7664 23.9427C41.3906 23.3469 41.4136 22.3579 40.8177 21.7336C40.2219 21.1094 39.2328 21.0864 38.6086 21.6823L25.9629 33.7532L21.4174 29.2076C20.8072 28.5975 19.8178 28.5975 19.2076 29.2076C18.5975 29.8178 18.5975 30.8072 19.2076 31.4174L24.8326 37.0424C25.4328 37.6425 26.4024 37.6538 27.0164 37.0677L40.7664 23.9427Z" fill="url(#paint0_linear_6_1444)"/>
<defs>
<linearGradient id="paint0_linear_6_1444" x1="53" y1="55" x2="8" y2="5" gradientUnits="userSpaceOnUse">
<stop stop-color="#0F7B0F"/>
<stop offset="1" stop-color="#3FA03F"/>
</linearGradient>
</defs>
</svg>
