<svg viewBox="0 0 300 139" fill="none" xmlns="http://www.w3.org/2000/svg">
<g clip-path="url(#clip0_217_7537)">
<path d="M63.6213 130.698C56.4383 126.017 51.2156 117.602 52.2845 109.096C58.7524 115.811 67.3871 120.022 76.661 120.984C80.2389 121.342 84.2557 121.368 86.7966 123.912C88.3776 125.495 89.0493 127.809 89.0839 130.046C89.1184 132.283 88.5809 134.485 88.0468 136.658L88.1781 137.201C79.6102 136.884 70.8044 135.379 63.6213 130.698Z" fill="#F0F0F0"/>
<path d="M52.4645 109.094C55.1514 115.662 59.8397 121.217 65.8633 124.969C67.1457 125.799 68.5511 126.423 70.0276 126.816C71.4783 127.152 72.9927 127.094 74.4133 126.648C75.7463 126.258 77.0646 125.704 78.4692 125.645C79.1886 125.626 79.904 125.759 80.5685 126.035C81.233 126.311 81.8316 126.725 82.3251 127.249C83.5885 128.522 84.319 130.173 84.9773 131.813C85.7083 133.634 86.4386 135.537 87.9272 136.885C88.1076 137.048 87.8435 137.319 87.6634 137.156C85.0735 134.809 84.7884 131.045 82.7527 128.324C81.8027 127.053 80.4643 126.062 78.828 126.02C77.3972 125.983 76.0372 126.553 74.6909 126.959C73.3115 127.415 71.8413 127.527 70.4088 127.284C68.917 126.967 67.49 126.399 66.1889 125.603C63.231 123.859 60.5658 121.661 58.2908 119.089C55.6781 116.168 53.5844 112.821 52.1001 109.194C52.0084 108.97 52.3733 108.871 52.4645 109.094H52.4645Z" fill="white"/>
<path d="M63.8528 123.875C63.0861 124.8 62.0155 125.422 60.8322 125.631C59.6489 125.84 58.4299 125.621 57.393 125.014C57.1836 124.89 57.3658 124.559 57.5754 124.683C58.54 125.25 59.6755 125.454 60.777 125.257C61.8785 125.061 62.8734 124.477 63.5823 123.611C63.7365 123.423 64.0062 123.688 63.8528 123.875V123.875Z" fill="white"/>
<path d="M73.7635 126.934C73.5564 124.487 72.4343 122.207 70.6211 120.55C70.4413 120.386 70.7053 120.116 70.8849 120.28C72.7685 122.008 73.9314 124.382 74.1414 126.929C74.1612 127.172 73.7833 127.176 73.7635 126.934Z" fill="white"/>
<path d="M56.1538 116.009C56.5251 115.713 56.817 115.33 57.0033 114.893C57.1896 114.456 57.2645 113.98 57.2212 113.507C57.1983 113.264 57.5763 113.261 57.599 113.502C57.6444 114.025 57.5611 114.551 57.3563 115.034C57.1515 115.517 56.8316 115.942 56.4244 116.273C56.3886 116.308 56.3411 116.327 56.2915 116.328C56.2419 116.328 56.1939 116.31 56.1572 116.277C56.1216 116.242 56.1012 116.194 56.1006 116.144C56.1 116.094 56.1191 116.045 56.1538 116.009Z" fill="white"/>
<path d="M76.7865 93.5284C76.8051 93.6794 76.8237 93.8304 76.8452 93.9829C77.1059 96.0115 77.5311 98.0155 78.1164 99.9752C78.1592 100.127 78.2049 100.281 78.2521 100.432C79.7125 105.138 82.0341 109.532 85.0987 113.391C86.3195 114.925 87.6554 116.365 89.0946 117.697C91.0824 119.536 93.384 121.371 94.612 123.691C94.7428 123.932 94.8586 124.181 94.9587 124.435L88.8304 136.999C88.8022 137.02 88.7767 137.043 88.7484 137.065L88.5266 137.578C88.4476 137.514 88.367 137.447 88.288 137.383C88.242 137.347 88.1974 137.307 88.1514 137.271C88.1211 137.245 88.0909 137.22 88.0622 137.199C88.0521 137.19 88.0421 137.182 88.0349 137.175C88.0061 137.154 87.9817 137.131 87.9558 137.111C87.5043 136.735 87.0546 136.355 86.6067 135.971C86.6039 135.969 86.6039 135.969 86.6024 135.965C83.1975 133.03 80.0078 129.785 77.4119 126.159C77.3339 126.05 77.2529 125.94 77.1776 125.825C76.0166 124.184 74.9916 122.451 74.113 120.643C73.635 119.652 73.2076 118.637 72.8322 117.602C71.8676 114.927 71.3299 112.116 71.2386 109.274C71.0575 103.607 72.6907 97.9461 76.493 93.8394C76.5903 93.7344 76.6863 93.632 76.7865 93.5284Z" fill="#F0F0F0"/>
<path d="M76.9321 93.6345C75.123 100.497 75.522 107.754 78.0725 114.377C78.5963 115.812 79.3431 117.156 80.2853 118.359C81.241 119.501 82.4852 120.366 83.8884 120.865C85.1875 121.356 86.5732 121.708 87.7302 122.507C88.3164 122.924 88.8077 123.461 89.1719 124.082C89.5361 124.702 89.765 125.393 89.8436 126.108C90.0857 127.886 89.6748 129.644 89.2131 131.35C88.7006 133.244 88.1382 135.202 88.5148 137.175C88.5605 137.414 88.1869 137.471 88.1413 137.233C87.486 133.8 89.5246 130.623 89.5379 127.224C89.5441 125.638 89.0723 124.041 87.7911 123.022C86.6707 122.131 85.2421 121.767 83.9225 121.281C82.5464 120.815 81.3055 120.018 80.3081 118.962C79.3077 117.811 78.5104 116.498 77.9504 115.079C76.6388 111.906 75.8343 108.546 75.5664 105.123C75.239 101.218 75.5821 97.285 76.5807 93.4954C76.6426 93.2608 76.9936 93.4015 76.9321 93.6345Z" fill="white"/>
<path d="M77.126 112.293C75.9568 112.57 74.7272 112.422 73.6567 111.876C72.5863 111.331 71.7447 110.422 71.2823 109.313C71.1895 109.088 71.5344 108.933 71.6273 109.158C72.056 110.192 72.84 111.038 73.8378 111.544C74.8357 112.051 75.9816 112.184 77.0688 111.919C77.3051 111.862 77.361 112.236 77.126 112.293V112.293Z" fill="white"/>
<path d="M83.197 120.703C84.5052 118.624 84.9817 116.128 84.5316 113.713C84.4868 113.474 84.8604 113.417 84.9051 113.656C85.3688 116.17 84.8677 118.766 83.5016 120.926C83.3713 121.132 83.0674 120.907 83.197 120.703Z" fill="white"/>
<path d="M75.7139 101.377C76.1886 101.364 76.6527 101.234 77.0645 100.997C77.4762 100.761 77.8228 100.425 78.073 100.022C78.2006 99.8144 78.5044 100.039 78.3775 100.245C78.099 100.69 77.7159 101.06 77.2615 101.322C76.8072 101.585 76.2955 101.732 75.7711 101.751C75.7218 101.757 75.6722 101.744 75.6322 101.714C75.5922 101.685 75.5648 101.642 75.5558 101.593C75.5484 101.543 75.5609 101.493 75.5906 101.453C75.6202 101.412 75.6645 101.385 75.7139 101.377H75.7139Z" fill="white"/>
<path d="M282.83 130.698C290.013 126.017 295.236 117.602 294.167 109.096C287.699 115.811 279.065 120.022 269.791 120.984C266.213 121.342 262.196 121.368 259.655 123.912C258.074 125.495 257.402 127.809 257.368 130.046C257.333 132.283 257.871 134.485 258.405 136.658L258.274 137.201C266.841 136.884 275.647 135.379 282.83 130.698Z" fill="#F0F0F0"/>
<path d="M293.987 109.094C291.3 115.662 286.612 121.217 280.588 124.969C279.306 125.799 277.9 126.423 276.424 126.816C274.973 127.152 273.459 127.094 272.038 126.648C270.705 126.258 269.387 125.704 267.982 125.645C267.263 125.626 266.547 125.759 265.883 126.035C265.218 126.311 264.62 126.725 264.126 127.249C262.863 128.522 262.132 130.173 261.474 131.813C260.743 133.634 260.013 135.537 258.524 136.885C258.344 137.048 258.608 137.319 258.788 137.156C261.378 134.809 261.663 131.045 263.699 128.324C264.649 127.053 265.987 126.062 267.623 126.02C269.054 125.983 270.414 126.553 271.761 126.959C273.14 127.415 274.61 127.527 276.043 127.284C277.534 126.967 278.961 126.399 280.263 125.603C283.22 123.859 285.886 121.661 288.161 119.089C290.773 116.168 292.867 112.821 294.351 109.194C294.443 108.97 294.078 108.871 293.987 109.094H293.987Z" fill="white"/>
<path d="M282.599 123.875C283.366 124.8 284.436 125.422 285.62 125.631C286.803 125.84 288.022 125.621 289.059 125.014C289.268 124.89 289.086 124.559 288.876 124.683C287.912 125.25 286.776 125.454 285.675 125.257C284.573 125.061 283.578 124.477 282.869 123.611C282.715 123.423 282.445 123.688 282.599 123.875V123.875Z" fill="white"/>
<path d="M272.688 126.934C272.895 124.487 274.017 122.207 275.831 120.55C276.01 120.386 275.746 120.116 275.567 120.28C273.683 122.008 272.52 124.382 272.31 126.929C272.29 127.172 272.668 127.176 272.688 126.934Z" fill="white"/>
<path d="M290.298 116.009C289.927 115.713 289.635 115.33 289.449 114.893C289.262 114.456 289.187 113.98 289.231 113.507C289.254 113.264 288.876 113.261 288.853 113.502C288.807 114.025 288.891 114.551 289.096 115.034C289.3 115.517 289.62 115.942 290.028 116.273C290.063 116.308 290.111 116.327 290.16 116.328C290.21 116.328 290.258 116.31 290.295 116.277C290.33 116.242 290.351 116.194 290.351 116.144C290.352 116.094 290.333 116.045 290.298 116.009Z" fill="white"/>
<path d="M269.665 93.5284C269.647 93.6794 269.628 93.8304 269.607 93.9829C269.346 96.0115 268.921 98.0155 268.336 99.9752C268.293 100.127 268.247 100.281 268.2 100.432C266.739 105.138 264.418 109.532 261.353 113.391C260.132 114.925 258.797 116.365 257.357 117.697C255.369 119.536 253.068 121.371 251.84 123.691C251.709 123.932 251.593 124.181 251.493 124.435L257.621 136.999C257.65 137.02 257.675 137.043 257.704 137.065L257.925 137.578C258.004 137.514 258.085 137.447 258.164 137.383C258.21 137.347 258.255 137.307 258.301 137.271C258.331 137.245 258.361 137.22 258.39 137.199C258.4 137.19 258.41 137.182 258.417 137.175C258.446 137.154 258.47 137.131 258.496 137.111C258.948 136.735 259.397 136.355 259.845 135.971C259.848 135.969 259.848 135.969 259.85 135.965C263.254 133.03 266.444 129.785 269.04 126.159C269.118 126.05 269.199 125.94 269.274 125.825C270.435 124.184 271.46 122.451 272.339 120.643C272.817 119.652 273.244 118.637 273.62 117.602C274.584 114.927 275.122 112.116 275.213 109.274C275.394 103.607 273.761 97.946 269.959 93.8394C269.862 93.7344 269.766 93.632 269.665 93.5284Z" fill="#F0F0F0"/>
<path d="M269.52 93.6345C271.329 100.497 270.93 107.754 268.379 114.377C267.856 115.812 267.109 117.156 266.167 118.359C265.211 119.501 263.967 120.366 262.564 120.865C261.264 121.356 259.879 121.708 258.722 122.507C258.136 122.924 257.644 123.461 257.28 124.082C256.916 124.702 256.687 125.393 256.608 126.108C256.366 127.886 256.777 129.644 257.239 131.35C257.751 133.244 258.314 135.202 257.937 137.175C257.891 137.414 258.265 137.471 258.311 137.233C258.966 133.8 256.927 130.623 256.914 127.224C256.908 125.638 257.38 124.041 258.661 123.022C259.781 122.131 261.21 121.767 262.529 121.281C263.906 120.815 265.146 120.018 266.144 118.962C267.144 117.811 267.942 116.498 268.502 115.079C269.813 111.906 270.618 108.546 270.886 105.123C271.213 101.218 270.87 97.285 269.871 93.4954C269.809 93.2608 269.458 93.4015 269.52 93.6345Z" fill="white"/>
<path d="M269.326 112.293C270.495 112.57 271.725 112.422 272.795 111.876C273.866 111.331 274.707 110.422 275.17 109.313C275.262 109.088 274.918 108.933 274.825 109.158C274.396 110.192 273.612 111.038 272.614 111.544C271.616 112.051 270.47 112.184 269.383 111.919C269.147 111.862 269.091 112.236 269.326 112.293V112.293Z" fill="white"/>
<path d="M263.255 120.703C261.946 118.624 261.47 116.128 261.92 113.713C261.965 113.474 261.591 113.417 261.546 113.656C261.083 116.17 261.584 118.766 262.95 120.926C263.08 121.132 263.384 120.907 263.255 120.703Z" fill="white"/>
<path d="M270.738 101.377C270.263 101.364 269.799 101.234 269.387 100.997C268.976 100.761 268.629 100.425 268.379 100.022C268.251 99.8144 267.947 100.039 268.074 100.245C268.353 100.69 268.736 101.06 269.19 101.322C269.645 101.585 270.156 101.732 270.681 101.751C270.73 101.757 270.78 101.744 270.82 101.714C270.86 101.685 270.887 101.642 270.896 101.593C270.903 101.543 270.891 101.493 270.861 101.453C270.832 101.412 270.787 101.385 270.738 101.377H270.738Z" fill="white"/>
<path d="M77.7693 89.4171C77.4975 89.2535 77.2649 89.0324 77.0878 88.7692C76.9108 88.506 76.7936 88.2072 76.7445 87.8938C76.6954 87.5805 76.7157 87.2601 76.8038 86.9554C76.8919 86.6507 77.0458 86.369 77.2545 86.1302L73.4336 79.4332L77.432 79.6915L80.4474 86.0115C80.8253 86.3888 81.0518 86.8916 81.0838 87.4247C81.1158 87.9578 80.9511 88.4841 80.621 88.9039C80.2909 89.3236 79.8182 89.6078 79.2926 89.7024C78.7671 89.797 78.225 89.6955 77.7693 89.4171Z" fill="#FFB6B6"/>
<path d="M48.3558 135.071H51.0012L52.2597 124.868L48.3555 124.869L48.3558 135.071Z" fill="#FFB6B6"/>
<path d="M47.6812 134.208L52.8906 134.208H52.8908C53.7713 134.208 54.6156 134.558 55.2382 135.18C55.8608 135.803 56.2106 136.647 56.2107 137.528V137.635L47.6813 137.636L47.6812 134.208Z" fill="#2F2E41"/>
<path d="M66.4801 135.071H69.1252L70.3837 124.868L66.4795 124.869L66.4801 135.071Z" fill="#FFB6B6"/>
<path d="M65.8052 134.208L71.0146 134.208H71.0148C71.8953 134.208 72.7397 134.558 73.3623 135.18C73.9848 135.803 74.3346 136.647 74.3347 137.528V137.635L65.8053 137.636L65.8052 134.208Z" fill="#2F2E41"/>
<path d="M73.2822 79.7211C73.2822 79.7211 74.0098 90.0824 72.5768 95.3006C71.1438 100.519 70.8879 132.076 70.8879 132.076H66.0846L61.9214 89.1202L52.3237 132.227L47.7485 131.913L50.2576 81.1167L73.2822 79.7211Z" fill="#2F2E41"/>
<path d="M52.2424 44.7935L55.9144 42.1139L62.0674 43.4537L63.733 47.4113L66.603 48.8343C67.5466 49.3021 68.3626 49.9922 68.9807 50.845C69.5989 51.6979 70.0007 52.6881 70.1516 53.7305L74.2518 82.0443L50.2575 81.1167L47.3526 47.7717C47.3223 47.4234 47.3621 47.0726 47.4698 46.7399C47.5775 46.4073 47.7508 46.0996 47.9794 45.8351C48.2081 45.5706 48.4875 45.3547 48.8011 45.2001C49.1148 45.0455 49.4562 44.9554 49.8052 44.9351L52.2424 44.7935Z" fill="#514F6C"/>
<path d="M68.1211 51.046L70.3373 54.0333L79.9897 83.4735L75.4652 85.2849L68.2203 71.5666L68.1211 51.046Z" fill="#514F6C"/>
<path d="M60.0882 40.7149C63.048 40.7149 65.4473 38.3155 65.4473 35.3557C65.4473 32.396 63.048 29.9966 60.0882 29.9966C57.1284 29.9966 54.729 32.396 54.729 35.3557C54.729 38.3155 57.1284 40.7149 60.0882 40.7149Z" fill="#FFB9B9"/>
<path opacity="0.1" d="M48.4048 57.4045L57.1502 69.5681L66.9257 75.9427L48.4048 57.4045Z" fill="black"/>
<path d="M57.2478 39.2301C56.875 38.4858 56.4916 37.6757 56.634 36.8556C56.7765 36.0354 57.7177 35.3208 58.444 35.7274C58.7454 34.6383 60.0795 34.1617 61.2025 34.2874C62.3255 34.4131 63.3595 34.9548 64.4653 35.1874C65.5712 35.4199 66.9142 35.2354 67.5118 34.2764L66.0818 34.2517L67.571 32.5244L65.8447 32.3953C66.4426 31.75 66.2838 30.6536 65.705 29.9912C65.1261 29.3287 64.2478 29.0152 63.3906 28.817C61.6796 28.4226 59.9061 28.3818 58.1787 28.6972C57.3643 28.8228 56.5796 29.0958 55.8631 29.503C55.1885 29.9145 54.631 30.4926 54.2443 31.1818C53.8272 31.9593 53.6017 32.8252 53.5866 33.7075C53.5611 34.8892 53.8327 36.0585 54.3763 37.108C54.92 38.1576 55.7184 39.054 56.6984 39.7149" fill="#2F2E41"/>
<path d="M256.785 137.773H90.4724C88.7596 137.771 87.1176 137.09 85.9065 135.879C84.6954 134.668 84.0142 133.026 84.0122 131.313V6.45999C84.0142 4.74727 84.6954 3.10526 85.9065 1.8942C87.1176 0.683136 88.7596 0.00192281 90.4724 0H256.785C258.498 0.00195322 260.14 0.683182 261.351 1.89424C262.562 3.1053 263.243 4.7473 263.245 6.45999V131.313C263.243 133.026 262.562 134.668 261.351 135.879C260.14 137.09 258.498 137.771 256.785 137.773Z" fill="#313131"/>
<path d="M214.928 57.3258H189.255C187.986 57.3258 186.769 56.8218 185.872 55.9246C184.975 55.0275 184.471 53.8107 184.471 52.542C184.471 51.2732 184.975 50.0565 185.872 49.1593C186.769 48.2622 187.986 47.7582 189.255 47.7582H214.928C216.196 47.7582 217.413 48.2622 218.31 49.1593C219.207 50.0565 219.711 51.2732 219.711 52.542C219.711 53.8107 219.207 55.0275 218.31 55.9246C217.413 56.8218 216.196 57.3258 214.928 57.3258Z" fill="#848282"/>
<path d="M192.444 70.4014H186.384C185.919 70.4014 185.473 70.2166 185.144 69.8877C184.815 69.5587 184.63 69.1126 184.63 68.6474C184.63 68.1822 184.815 67.736 185.144 67.4071C185.473 67.0781 185.919 66.8933 186.384 66.8933H192.444C192.909 66.8933 193.355 67.0781 193.684 67.4071C194.013 67.736 194.198 68.1822 194.198 68.6474C194.198 69.1126 194.013 69.5587 193.684 69.8877C193.355 70.2166 192.909 70.4014 192.444 70.4014Z" fill="#848282"/>
<path d="M217.639 70.4014H211.579C211.114 70.4014 210.668 70.2166 210.339 69.8877C210.01 69.5587 209.825 69.1126 209.825 68.6474C209.825 68.1822 210.01 67.736 210.339 67.4071C210.668 67.0781 211.114 66.8933 211.579 66.8933H217.639C218.104 66.8933 218.55 67.0781 218.879 67.4071C219.208 67.736 219.393 68.1822 219.393 68.6474C219.393 69.1126 219.208 69.5587 218.879 69.8877C218.55 70.2166 218.104 70.4014 217.639 70.4014Z" fill="#848282"/>
<path d="M204.882 70.4014H198.822C198.357 70.4014 197.911 70.2166 197.582 69.8877C197.253 69.5587 197.068 69.1126 197.068 68.6474C197.068 68.1822 197.253 67.736 197.582 67.4071C197.911 67.0781 198.357 66.8933 198.822 66.8933H204.882C205.347 66.8933 205.793 67.0781 206.122 67.4071C206.451 67.736 206.636 68.1822 206.636 68.6474C206.636 69.1126 206.451 69.5587 206.122 69.8877C205.793 70.2166 205.347 70.4014 204.882 70.4014Z" fill="#848282"/>
<path d="M192.444 77.0988H186.384C185.919 77.0988 185.473 76.914 185.144 76.5851C184.815 76.2561 184.63 75.81 184.63 75.3448C184.63 74.8796 184.815 74.4334 185.144 74.1045C185.473 73.7755 185.919 73.5907 186.384 73.5907H192.444C192.909 73.5907 193.355 73.7755 193.684 74.1045C194.013 74.4334 194.198 74.8796 194.198 75.3448C194.198 75.81 194.013 76.2561 193.684 76.5851C193.355 76.914 192.909 77.0988 192.444 77.0988Z" fill="#848282"/>
<path d="M217.639 77.0988H211.579C211.114 77.0988 210.668 76.914 210.339 76.5851C210.01 76.2561 209.825 75.81 209.825 75.3448C209.825 74.8796 210.01 74.4334 210.339 74.1045C210.668 73.7755 211.114 73.5907 211.579 73.5907H217.639C218.104 73.5907 218.55 73.7755 218.879 74.1045C219.208 74.4334 219.393 74.8796 219.393 75.3448C219.393 75.81 219.208 76.2561 218.879 76.5851C218.55 76.914 218.104 77.0988 217.639 77.0988Z" fill="#848282"/>
<path d="M204.882 77.0988H198.822C198.357 77.0988 197.911 76.914 197.582 76.5851C197.253 76.2561 197.068 75.81 197.068 75.3448C197.068 74.8796 197.253 74.4334 197.582 74.1045C197.911 73.7755 198.357 73.5907 198.822 73.5907H204.882C205.347 73.5907 205.793 73.7755 206.122 74.1045C206.451 74.4334 206.636 74.8796 206.636 75.3448C206.636 75.81 206.451 76.2561 206.122 76.5851C205.793 76.914 205.347 77.0988 204.882 77.0988Z" fill="#848282"/>
<path d="M192.444 83.7961H186.384C185.919 83.7961 185.473 83.6113 185.144 83.2823C184.815 82.9534 184.63 82.5072 184.63 82.042C184.63 81.5768 184.815 81.1307 185.144 80.8017C185.473 80.4728 185.919 80.288 186.384 80.288H192.444C192.909 80.288 193.355 80.4728 193.684 80.8017C194.013 81.1307 194.198 81.5768 194.198 82.042C194.198 82.5072 194.013 82.9534 193.684 83.2823C193.355 83.6113 192.909 83.7961 192.444 83.7961Z" fill="#848282"/>
<path d="M217.639 83.7961H211.579C211.114 83.7961 210.668 83.6113 210.339 83.2823C210.01 82.9534 209.825 82.5072 209.825 82.042C209.825 81.5768 210.01 81.1307 210.339 80.8017C210.668 80.4728 211.114 80.288 211.579 80.288H217.639C218.104 80.288 218.55 80.4728 218.879 80.8017C219.208 81.1307 219.393 81.5768 219.393 82.042C219.393 82.5072 219.208 82.9534 218.879 83.2823C218.55 83.6113 218.104 83.7961 217.639 83.7961Z" fill="#848282"/>
<path d="M204.882 83.7961H198.822C198.357 83.7961 197.911 83.6113 197.582 83.2823C197.253 82.9534 197.068 82.5072 197.068 82.042C197.068 81.5768 197.253 81.1307 197.582 80.8017C197.911 80.4728 198.357 80.288 198.822 80.288H204.882C205.347 80.288 205.793 80.4728 206.122 80.8017C206.451 81.1307 206.636 81.5768 206.636 82.042C206.636 82.5072 206.451 82.9534 206.122 83.2823C205.793 83.6113 205.347 83.7961 204.882 83.7961Z" fill="#848282"/>
<path d="M192.444 90.4935H186.384C185.919 90.4935 185.473 90.3087 185.144 89.9797C184.815 89.6508 184.63 89.2046 184.63 88.7394C184.63 88.2742 184.815 87.8281 185.144 87.4991C185.473 87.1702 185.919 86.9854 186.384 86.9854H192.444C192.909 86.9854 193.355 87.1702 193.684 87.4991C194.013 87.8281 194.198 88.2742 194.198 88.7394C194.198 89.2046 194.013 89.6508 193.684 89.9797C193.355 90.3087 192.909 90.4935 192.444 90.4935Z" fill="#848282"/>
<path d="M217.639 90.4935H211.579C211.114 90.4935 210.668 90.3087 210.339 89.9797C210.01 89.6508 209.825 89.2046 209.825 88.7394C209.825 88.2742 210.01 87.8281 210.339 87.4991C210.668 87.1702 211.114 86.9854 211.579 86.9854H217.639C218.104 86.9854 218.55 87.1702 218.879 87.4991C219.208 87.8281 219.393 88.2742 219.393 88.7394C219.393 89.2046 219.208 89.6508 218.879 89.9797C218.55 90.3087 218.104 90.4935 217.639 90.4935Z" fill="#848282"/>
<path d="M204.882 90.4935H198.822C198.357 90.4935 197.911 90.3087 197.582 89.9797C197.253 89.6508 197.068 89.2046 197.068 88.7394C197.068 88.2742 197.253 87.8281 197.582 87.4991C197.911 87.1702 198.357 86.9854 198.822 86.9854H204.882C205.347 86.9854 205.793 87.1702 206.122 87.4991C206.451 87.8281 206.636 88.2742 206.636 88.7394C206.636 89.2046 206.451 89.6508 206.122 89.9797C205.793 90.3087 205.347 90.4935 204.882 90.4935Z" fill="#848282"/>
<path d="M151.463 83.4772C160.446 83.4772 167.728 76.1952 167.728 67.2123C167.728 58.2294 160.446 50.9474 151.463 50.9474C142.48 50.9474 135.198 58.2294 135.198 67.2123C135.198 76.1952 142.48 83.4772 151.463 83.4772Z" fill="#272727"/>
<path d="M151.463 87.1448C150.194 87.1433 148.978 86.6389 148.081 85.742C147.185 84.8452 146.68 83.6293 146.679 82.361V52.0636C146.678 51.435 146.802 50.8125 147.042 50.2317C147.282 49.6508 147.634 49.123 148.078 48.6784C148.523 48.2338 149.05 47.881 149.631 47.6404C150.212 47.3997 150.834 47.2759 151.462 47.2759C152.091 47.2759 152.713 47.3997 153.294 47.6404C153.875 47.881 154.402 48.2338 154.847 48.6784C155.291 49.123 155.643 49.6508 155.883 50.2317C156.123 50.8125 156.247 51.435 156.246 52.0636V82.361C156.245 83.6293 155.74 84.8452 154.844 85.742C153.947 86.6388 152.731 87.1433 151.463 87.1448Z" fill="#848282"/>
<path d="M193.954 55.2716H189.489C189.32 55.2716 189.158 55.2044 189.038 55.0848C188.919 54.9652 188.852 54.803 188.852 54.6338C188.852 54.4646 188.919 54.3024 189.038 54.1828C189.158 54.0632 189.32 53.996 189.489 53.996H193.954C194.123 53.996 194.286 54.0632 194.405 54.1828C194.525 54.3024 194.592 54.4646 194.592 54.6338C194.592 54.803 194.525 54.9652 194.405 55.0848C194.286 55.2044 194.123 55.2716 193.954 55.2716Z" fill="#272727"/>
<path d="M200.971 55.4311H196.506C196.337 55.4311 196.175 55.3639 196.055 55.2443C195.935 55.1246 195.868 54.9624 195.868 54.7932C195.868 54.6241 195.935 54.4618 196.055 54.3422C196.175 54.2226 196.337 54.1554 196.506 54.1554H200.971C201.14 54.1554 201.302 54.2226 201.422 54.3422C201.542 54.4618 201.609 54.6241 201.609 54.7932C201.609 54.9624 201.542 55.1246 201.422 55.2443C201.302 55.3639 201.14 55.4311 200.971 55.4311Z" fill="#272727"/>
<path d="M207.987 55.5905H203.522C203.353 55.5905 203.191 55.5233 203.071 55.4037C202.951 55.2841 202.884 55.1218 202.884 54.9527C202.884 54.7835 202.951 54.6213 203.071 54.5016C203.191 54.382 203.353 54.3148 203.522 54.3148H207.987C208.156 54.3148 208.318 54.382 208.438 54.5016C208.558 54.6213 208.625 54.7835 208.625 54.9527C208.625 55.1218 208.558 55.2841 208.438 55.4037C208.318 55.5233 208.156 55.5905 207.987 55.5905Z" fill="#272727"/>
<path d="M215.003 55.75H210.538C210.369 55.75 210.207 55.6828 210.087 55.5632C209.968 55.4436 209.9 55.2814 209.9 55.1122C209.9 54.943 209.968 54.7808 210.087 54.6612C210.207 54.5416 210.369 54.4744 210.538 54.4744H215.003C215.172 54.4744 215.334 54.5416 215.454 54.6612C215.574 54.7808 215.641 54.943 215.641 55.1122C215.641 55.2814 215.574 55.4436 215.454 55.5632C215.334 55.6828 215.172 55.75 215.003 55.75Z" fill="#272727"/>
<path d="M105.22 118.08C105.219 118.869 105.376 119.651 105.68 120.38C105.985 121.109 106.431 121.77 106.993 122.325H104.358C103.581 122.325 102.811 122.171 102.093 121.874C101.375 121.577 100.723 121.141 100.173 120.591C99.6234 120.041 99.1874 119.389 98.89 118.671C98.5925 117.953 98.4395 117.183 98.4395 116.406V20.4485C98.4395 19.6712 98.5925 18.9016 98.89 18.1835C99.1874 17.4654 99.6234 16.8129 100.173 16.2633C100.723 15.7136 101.375 15.2777 102.093 14.9802C102.811 14.6828 103.581 14.5297 104.358 14.5297H108.192C107.288 15.0555 106.538 15.8094 106.016 16.716C105.494 17.6226 105.22 18.6502 105.22 19.6962L105.22 118.08Z" fill="#272727"/>
<path d="M299.62 138.399H0.379611C0.27909 138.399 0.182788 138.359 0.111812 138.287C0.0408359 138.216 0.000976562 138.12 0.000976562 138.019C0.000976562 137.919 0.0408359 137.822 0.111812 137.751C0.182788 137.68 0.27909 137.64 0.379611 137.64H299.62C299.721 137.64 299.817 137.68 299.889 137.751C299.96 137.822 300 137.919 300 138.019C300 138.12 299.96 138.217 299.889 138.288C299.817 138.359 299.721 138.399 299.62 138.399Z" fill="#171C30"/>
<path d="M104.582 42.5691C102.566 42.0046 100.543 41.4815 98.5125 41C91.5691 39.3425 84.5299 38.1155 77.4352 37.326C76.2326 37.0093 74.9536 37.1805 73.8767 37.8023C72.7997 38.4241 72.012 39.4462 71.685 40.646L68.1418 53.7217C67.8165 54.927 67.9827 56.2121 68.604 57.2949C69.2252 58.3777 70.2508 59.1698 71.4554 59.4973L71.5033 59.5069C76.1914 60.0395 80.9241 60.7794 85.6313 61.7234C86.0524 61.8063 86.4702 61.8924 86.8911 61.9817C88.3996 62.2943 89.9038 62.6281 91.4038 62.9831C92.0608 63.1362 92.7145 63.2957 93.3715 63.4583C95.1383 63.8984 96.9063 64.3672 98.6753 64.8647C100.643 65.4197 102.612 66.0118 104.582 66.6411C104.795 66.7049 105.009 66.7719 105.219 66.842V42.7508C105.009 42.6871 104.795 42.6265 104.582 42.5691Z" fill="#232735"/>
<path d="M104.582 42.5691C102.566 42.0046 100.543 41.4815 98.5125 41C91.5691 39.3425 84.5299 38.1155 77.4352 37.326C76.2326 37.0093 74.9536 37.1805 73.8767 37.8023C72.7997 38.4241 72.012 39.4462 71.685 40.646L68.1418 53.7217C67.8165 54.927 67.9827 56.2121 68.604 57.2949C69.2252 58.3777 70.2508 59.1698 71.4554 59.4973L71.5033 59.5069C76.1914 60.0395 80.9241 60.7794 85.6313 61.7234C86.0524 61.8063 86.4702 61.8924 86.8911 61.9817C88.3996 62.2943 89.9038 62.6281 91.4038 62.9831C92.0608 63.1362 92.7145 63.2957 93.3715 63.4583C95.1383 63.8984 96.9063 64.3672 98.6753 64.8647C100.643 65.4197 102.612 66.0118 104.582 66.6411C104.795 66.7049 105.009 66.7719 105.219 66.842V66.1691C105.006 66.1021 104.792 66.0352 104.582 65.9682C102.77 65.3909 100.961 64.8477 99.1537 64.3385C98.4775 64.144 97.8014 63.9558 97.1252 63.774C95.907 63.4455 94.6919 63.1309 93.4801 62.83C92.8358 62.6674 92.1927 62.5111 91.5505 62.3612C91.5027 62.3484 91.4516 62.3389 91.4038 62.3261C90.3098 62.0678 89.2138 61.8212 88.1157 61.5862C87.6948 61.4969 87.2739 61.4076 86.8528 61.3215C81.7756 60.2691 76.6601 59.4495 71.5988 58.8754C70.5636 58.5871 69.6842 57.9015 69.152 56.968C68.6198 56.0344 68.478 54.9284 68.7574 53.8907L72.3005 40.8118C72.5839 39.7711 73.2686 38.8855 74.2044 38.3491C75.1401 37.8128 76.2504 37.6696 77.2916 37.9511L77.3394 37.9575C84.3441 38.7352 91.2947 39.9409 98.1522 41.5676C98.2222 41.5868 98.2925 41.6027 98.3626 41.6187C100.442 42.1162 102.515 42.6541 104.581 43.2324C104.792 43.2898 105.006 43.3504 105.219 43.4142V42.7508C105.009 42.687 104.795 42.6265 104.582 42.5691Z" fill="#60CDFF"/>
<path d="M105.219 43.0825V66.504C105.006 66.4338 104.795 66.3669 104.581 66.2999C102.697 65.6971 100.805 65.1295 98.9079 64.5969C97.0867 64.0802 95.2593 63.5944 93.4257 63.1394C92.7751 62.9799 92.1276 62.8237 91.477 62.6706C91.4515 62.5558 91.4259 62.441 91.4036 62.3262C91.2856 61.7776 91.1933 61.2227 91.123 60.6646C91.0911 60.4509 91.0688 60.2372 91.0464 60.0204C90.7108 56.6036 91.1786 53.1557 92.4123 49.9519C93.646 46.748 95.6115 43.8769 98.152 41.5677C98.2445 41.4784 98.3401 41.3923 98.4359 41.3093C100.496 41.8005 102.545 42.332 104.581 42.9039C104.795 42.9582 105.009 43.0188 105.219 43.0825Z" fill="#60CDFF"/>
<path d="M84.0398 52.6724L75.1706 51.6264C74.8586 51.5895 74.5424 51.6145 74.24 51.6998C73.9377 51.7852 73.6551 51.9293 73.4084 52.1239C73.1617 52.3184 72.9558 52.5597 72.8023 52.8338C72.6489 53.108 72.5509 53.4097 72.5141 53.7217C72.4772 54.0337 72.5022 54.3499 72.5875 54.6523C72.6729 54.9547 72.817 55.2373 73.0115 55.484C73.2061 55.7306 73.4474 55.9366 73.7215 56.09C73.9957 56.2435 74.2974 56.3414 74.6094 56.3783L83.4785 57.4243C84.1078 57.4971 84.7403 57.3173 85.2372 56.9244C85.7342 56.5315 86.055 55.9575 86.1293 55.3284C86.2037 54.6992 86.0254 54.0663 85.6337 53.5684C85.242 53.0705 84.6688 52.7483 84.0398 52.6724ZM85.5005 55.2557C85.445 55.7173 85.2086 56.138 84.8433 56.4255C84.478 56.7131 84.0135 56.8441 83.5518 56.7897L74.6826 55.7436C74.222 55.6876 73.8025 55.4513 73.5158 55.0865C73.2291 54.7217 73.0987 54.2581 73.1532 53.7974C73.2076 53.3366 73.4424 52.9162 73.8062 52.6282C74.17 52.3403 74.6331 52.2082 75.094 52.261L83.9632 53.3071C84.4249 53.363 84.8457 53.5993 85.1337 53.9644C85.4217 54.3295 85.5536 54.7937 85.5005 55.2557L85.5005 55.2557Z" fill="#60CDFF"/>
<path d="M105.219 48.5679V59.6759C105.014 59.7988 104.801 59.9075 104.581 60.0012C103.437 60.5122 102.168 60.6776 100.93 60.4771C99.6928 60.2765 98.5409 59.7187 97.6163 58.8722C97.5271 58.7925 97.4377 58.7063 97.3516 58.6171C97.2655 58.5309 97.1826 58.4385 97.1029 58.346C96.1401 57.2402 95.5837 55.8389 95.5256 54.3738C95.4675 52.9088 95.9112 51.4678 96.7833 50.2892C97.6554 49.1106 98.9037 48.265 100.322 47.8923C101.74 47.5196 103.243 47.642 104.581 48.2394C104.8 48.3374 105.013 48.447 105.219 48.5679Z" fill="#232735"/>
<path d="M104.581 56.6079C102.072 57.1309 99.5787 57.7103 97.1027 58.346C96.1779 58.582 95.2562 58.8265 94.3377 59.0795C93.2406 59.3825 92.1435 59.6961 91.0464 60.0204C89.6464 60.435 88.2485 60.8687 86.8526 61.3215C86.4476 61.4555 86.0394 61.5894 85.6311 61.7234C81.7499 63.0182 77.8942 64.4533 74.1022 66.0192C72.8955 66.3208 71.8568 67.087 71.2123 68.1508C70.5678 69.2146 70.3696 70.49 70.661 71.6992L73.8599 84.8642C74.1559 86.0768 74.9209 87.1224 75.9869 87.7717C77.0529 88.421 78.3329 88.6209 79.5461 88.3277L79.5908 88.3117C85.8266 85.7539 92.2088 83.5687 98.7037 81.7675C100.643 81.2285 102.602 80.7204 104.581 80.2431C104.795 80.192 105.005 80.141 105.219 80.0932V56.4772C105.005 56.5154 104.795 56.5601 104.581 56.6079Z" fill="#232735"/>
<path d="M104.581 56.6079C102.072 57.1309 99.5787 57.7103 97.1027 58.346C96.1779 58.582 95.2562 58.8265 94.3377 59.0795C93.2406 59.3825 92.1435 59.6961 91.0464 60.0204C89.6464 60.435 88.2485 60.8687 86.8526 61.3215C86.4476 61.4555 86.0394 61.5894 85.6311 61.7234C81.7499 63.0182 77.8942 64.4533 74.1022 66.0192C72.8955 66.3208 71.8568 67.087 71.2123 68.1508C70.5678 69.2146 70.3696 70.49 70.661 71.6992L73.8599 84.8642C74.1559 86.0768 74.9209 87.1224 75.9869 87.7717C77.0529 88.421 78.3329 88.6209 79.5461 88.3277L79.5908 88.3117C85.8266 85.7539 92.2088 83.5687 98.7037 81.7675C100.643 81.2285 102.602 80.7204 104.581 80.2431C104.795 80.192 105.005 80.141 105.219 80.0932V79.4362C105.005 79.4872 104.795 79.5383 104.581 79.5893C104.422 79.6276 104.259 79.6658 104.1 79.7041C102.225 80.1602 100.37 80.6428 98.5346 81.152C98.4868 81.1648 98.4359 81.1807 98.3879 81.1935C91.9258 82.9906 85.5757 85.1684 79.3708 87.7154C78.3244 87.9606 77.2235 87.783 76.3074 87.221C75.3913 86.6591 74.7341 85.7582 74.4786 84.7143L71.283 71.5493C71.0294 70.501 71.2019 69.3949 71.7627 68.4736C72.3235 67.5523 73.2267 66.891 74.2744 66.6348L74.3222 66.6188C78.4523 64.9094 82.6556 63.3595 86.8909 61.9817C87.2991 61.8478 87.7074 61.717 88.1155 61.5863C89.117 61.2705 90.1194 60.9633 91.123 60.6646C92.1817 60.3489 93.2395 60.0448 94.2961 59.7525C94.3664 59.7333 94.4365 59.7142 94.5067 59.6951C95.5401 59.4112 96.5765 59.137 97.6161 58.8723C99.9219 58.2854 102.244 57.7465 104.581 57.2553C104.792 57.2107 105.005 57.166 105.219 57.1246V56.4772C105.005 56.5154 104.795 56.5601 104.581 56.6079Z" fill="#60CDFF"/>
<path d="M105.219 56.7992V79.7646C105.009 79.8124 104.795 79.8603 104.581 79.9113C102.585 80.396 100.597 80.9127 98.6177 81.4612C98.538 81.372 98.4614 81.2826 98.388 81.1933C96.3216 78.7743 94.8032 75.9366 93.9372 72.8753C93.0713 69.8139 92.8783 66.6013 93.3714 63.4582C93.3875 63.353 93.4066 63.2446 93.4258 63.1393C93.4417 63.0373 93.4608 62.932 93.48 62.83C93.6769 61.7856 93.9497 60.757 94.2963 59.7524C94.3378 59.6312 94.3793 59.51 94.424 59.3888C95.3966 59.1209 96.3725 58.8637 97.3515 58.617C99.7467 57.9983 102.157 57.436 104.581 56.93C104.792 56.8821 105.006 56.8407 105.219 56.7992Z" fill="#60CDFF"/>
<path d="M90.3992 77.6024C90.16 77.015 89.6977 76.5465 89.1136 76.2996C88.5294 76.0527 87.8712 76.0475 87.2833 76.2853L79.0073 79.6403C78.4204 79.8795 77.9524 80.3418 77.7061 80.9258C77.4598 81.5097 77.4553 82.1675 77.6936 82.7548C77.9319 83.3421 78.3935 83.8108 78.977 84.058C79.5606 84.3052 80.2184 84.3107 80.806 84.0733L89.0821 80.7183C89.6689 80.4786 90.137 80.0162 90.3838 79.4322C90.6307 78.8483 90.6362 78.1904 90.3992 77.6024ZM88.8429 80.1251L80.5668 83.4833C80.1356 83.6576 79.6528 83.6537 79.2245 83.4724C78.7962 83.291 78.4574 82.9471 78.2824 82.5161C78.1075 82.0851 78.1108 81.6023 78.2915 81.1737C78.4723 80.7452 78.8157 80.4058 79.2465 80.2303L87.5225 76.8753C87.9534 76.7002 88.4363 76.7035 88.8648 76.8844C89.2934 77.0653 89.6325 77.409 89.8076 77.84C89.9827 78.2709 89.9794 78.7538 89.7985 79.1823C89.6176 79.6109 89.2738 79.95 88.8429 80.1251Z" fill="#60CDFF"/>
<path d="M105.219 62.6641V75.169C105.009 75.2225 104.796 75.2651 104.581 75.2965C103.301 75.476 101.996 75.2661 100.837 74.6943C99.6772 74.1224 98.7165 73.2149 98.0795 72.0898C97.4425 70.9648 97.1587 69.6741 97.265 68.3855C97.3712 67.097 97.8626 65.8703 98.6752 64.8647C98.7486 64.7722 98.825 64.6829 98.908 64.5968C98.9845 64.5075 99.0675 64.4214 99.1536 64.3385C99.8588 63.641 100.716 63.1158 101.657 62.8038C102.598 62.4918 103.599 62.4014 104.581 62.5398C104.796 62.5686 105.009 62.6101 105.219 62.6641Z" fill="#232735"/>
<path d="M104.582 40.9075V72.7388C104.795 72.6687 105.009 72.6017 105.219 72.5379V41.1977C105.006 41.0988 104.795 41.0031 104.582 40.9075ZM104.582 40.9075V72.7388C104.795 72.6687 105.009 72.6017 105.219 72.5379V41.1977C105.006 41.0988 104.795 41.0031 104.582 40.9075ZM104.582 40.9075V72.7388C104.795 72.6687 105.009 72.6017 105.219 72.5379V41.1977C105.006 41.0988 104.795 41.0031 104.582 40.9075ZM104.582 43.2324V79.9113C104.795 79.8603 105.009 79.8125 105.219 79.7646V43.4142C105.006 43.3504 104.792 43.2898 104.582 43.2324V43.2324ZM104.582 43.2324V79.9113C104.795 79.8603 105.009 79.8125 105.219 79.7646V43.4142C105.006 43.3504 104.792 43.2898 104.582 43.2324V43.2324ZM104.582 43.2324V79.9113C104.795 79.8603 105.009 79.8125 105.219 79.7646V43.4142C105.006 43.3504 104.792 43.2898 104.582 43.2324V43.2324ZM104.582 43.2324V79.9113C104.795 79.8603 105.009 79.8125 105.219 79.7646V43.4142C105.006 43.3504 104.792 43.2898 104.582 43.2324V43.2324ZM104.582 43.2324V80.243C104.795 80.192 105.006 80.141 105.219 80.0931V43.4142C105.006 43.3504 104.792 43.2898 104.582 43.2324V43.2324ZM243.71 13.0753H111.202C109.447 13.0782 107.765 13.7767 106.524 15.0177C105.283 16.2587 104.584 17.941 104.582 19.6961V118.08C104.585 119.834 105.283 121.516 106.524 122.757C107.765 123.997 109.448 124.695 111.202 124.697H243.71C245.465 124.695 247.147 123.997 248.387 122.757C249.628 121.516 250.326 119.834 250.328 118.08V19.6961C250.326 17.9412 249.629 16.2585 248.388 15.0172C247.148 13.776 245.465 13.0776 243.71 13.0753V13.0753ZM249.69 118.08C249.688 119.665 249.058 121.185 247.937 122.306C246.816 123.427 245.296 124.058 243.71 124.059H111.202C109.617 124.058 108.096 123.428 106.975 122.307C105.853 121.186 105.222 119.665 105.219 118.08V19.6961C105.222 18.11 105.853 16.5896 106.974 15.4681C108.096 14.3466 109.616 13.7155 111.202 13.7132H243.71C245.296 13.715 246.817 14.346 247.938 15.4677C249.059 16.5894 249.689 18.1102 249.69 19.6961V118.08ZM104.582 43.2324V79.5892C104.795 79.5382 105.006 79.4872 105.219 79.4361V43.4142C105.006 43.3504 104.792 43.2898 104.582 43.2324V43.2324ZM104.582 43.2324V79.9113C104.795 79.8603 105.009 79.8125 105.219 79.7646V43.4142C105.006 43.3504 104.792 43.2898 104.582 43.2324V43.2324ZM104.582 43.2324V79.9113C104.795 79.8603 105.009 79.8125 105.219 79.7646V43.4142C105.006 43.3504 104.792 43.2898 104.582 43.2324V43.2324ZM104.582 43.2324V79.9113C104.795 79.8603 105.009 79.8125 105.219 79.7646V43.4142C105.006 43.3504 104.792 43.2898 104.582 43.2324V43.2324ZM104.582 40.9075V72.7388C104.795 72.6687 105.009 72.6017 105.219 72.5379V41.1977C105.006 41.0988 104.795 41.0031 104.582 40.9075ZM104.582 40.9075V72.7388C104.795 72.6687 105.009 72.6017 105.219 72.5379V41.1977C105.006 41.0988 104.795 41.0031 104.582 40.9075Z" fill="#272727"/>
<path d="M76.1739 74.587C76.0489 74.2954 75.8615 74.0349 75.6249 73.8236C75.3883 73.6124 75.1082 73.4555 74.8045 73.3642C74.5007 73.2729 74.1806 73.2493 73.8667 73.2951C73.5529 73.3409 73.2528 73.4549 72.9878 73.6292L66.8739 68.9314L66.585 72.9277L72.4352 76.7761C72.7574 77.2019 73.2247 77.4947 73.7485 77.5991C74.2722 77.7034 74.816 77.612 75.2769 77.3422C75.7377 77.0723 76.0836 76.6428 76.2489 76.135C76.4142 75.6272 76.3875 75.0764 76.1739 74.587V74.587Z" fill="#FFB6B6"/>
<path d="M51.5371 46.2358L49.5252 45.285C49.5252 45.285 46.2842 46.1967 47.8588 50.4825L57.3879 68.2347L69.0217 75.046L72.6485 71.8321L61.0063 62.6204L51.5371 46.2358Z" fill="#514F6C"/>
</g>
<defs>
<clipPath id="clip0_217_7537">
<rect width="300" height="138.399" fill="white"/>
</clipPath>
</defs>
</svg>
